<svg width="15" height="14" viewBox="0 0 15 14" fill="none" xmlns="http://www.w3.org/2000/svg">
<path fill-rule="evenodd" clip-rule="evenodd" d="M5.15408 0H10.2925C12.657 0 14.5745 1.91749 14.5745 4.28201V9.42043C14.5745 11.785 12.657 13.7024 10.2925 13.7024H5.15408C2.78956 13.7024 0.87207 11.785 0.87207 9.42043V4.28201C0.87207 1.91749 2.78956 0 5.15408 0ZM10.2925 12.4179C11.9454 12.4179 13.2899 11.0733 13.2899 9.42047V4.28205C13.2899 2.62919 11.9454 1.28464 10.2925 1.28464H5.15409C3.50123 1.28464 2.15668 2.62919 2.15668 4.28205V9.42047C2.15668 11.0733 3.50123 12.4179 5.15409 12.4179H10.2925ZM4.29767 6.85118C4.29767 4.95939 5.83149 3.42557 7.72328 3.42557C9.61508 3.42557 11.1489 4.95939 11.1489 6.85118C11.1489 8.74297 9.61508 10.2768 7.72328 10.2768C5.83149 10.2768 4.29767 8.74297 4.29767 6.85118ZM5.58228 6.85122C5.58228 8.03134 6.54316 8.99222 7.72328 8.99222C8.90341 8.99222 9.86429 8.03134 9.86429 6.85122C9.86429 5.67024 8.90341 4.71021 7.72328 4.71021C6.54316 4.71021 5.58228 5.67024 5.58228 6.85122ZM11.8623 3.16876C11.8623 3.42086 11.658 3.62522 11.4059 3.62522C11.1538 3.62522 10.9494 3.42086 10.9494 3.16876C10.9494 2.91666 11.1538 2.7123 11.4059 2.7123C11.658 2.7123 11.8623 2.91666 11.8623 3.16876Z" fill="#F8F7FF"/>
</svg>
