<svg width="14" height="14" viewBox="0 0 14 14" fill="none" xmlns="http://www.w3.org/2000/svg">
<path fill-rule="evenodd" clip-rule="evenodd" d="M3.14634 1.49871C3.14634 2.32642 2.47534 2.99741 1.64763 2.99741C0.819919 2.99741 0.148926 2.32642 0.148926 1.49871C0.148926 0.670993 0.819919 0 1.64763 0C2.47534 0 3.14634 0.670993 3.14634 1.49871ZM0.148926 4.282H3.21314V13.7024H0.148926V4.282ZM11.5596 4.39247L11.5275 4.38201C11.5061 4.37496 11.4848 4.36792 11.462 4.36164C11.4209 4.35222 11.3798 4.34451 11.3378 4.33766C11.1751 4.30512 10.997 4.282 10.788 4.282C9.00154 4.282 7.86852 5.58116 7.49513 6.08301V4.282H4.43092V13.7024H7.49513V8.56401C7.49513 8.56401 9.81084 5.3388 10.788 7.70761V13.7024H13.8514V7.34535C13.8514 5.92201 12.8759 4.73589 11.5596 4.39247Z" fill="#F8F7FF"/>
</svg>
