<svg width="15" height="12" viewBox="0 0 15 12" fill="none" xmlns="http://www.w3.org/2000/svg">
<path d="M14.4256 1.46009C13.916 1.68362 13.3731 1.83177 12.807 1.90371C13.3893 1.55601 13.8338 1.00963 14.0428 0.351052C13.4998 0.674772 12.9003 0.903432 12.2615 1.03104C11.7459 0.482082 11.0111 0.14209 10.2095 0.14209C8.65429 0.14209 7.40223 1.40443 7.40223 2.95195C7.40223 3.17461 7.42107 3.38871 7.46732 3.59254C5.13191 3.47864 3.06541 2.35932 1.67718 0.654219C1.43482 1.07471 1.29265 1.55601 1.29265 2.07413C1.29265 3.04701 1.79365 3.90941 2.54043 4.40869C2.08911 4.40013 1.64635 4.2691 1.27124 4.0627C1.27124 4.07127 1.27124 4.0824 1.27124 4.09353C1.27124 5.45864 2.24497 6.59252 3.52187 6.85372C3.29321 6.91624 3.044 6.94621 2.78536 6.94621C2.60552 6.94621 2.42396 6.93593 2.25354 6.89825C2.61751 8.01072 3.65033 8.82858 4.87841 8.85513C3.92267 9.60277 2.70914 10.0532 1.39542 10.0532C1.16505 10.0532 0.944096 10.043 0.723145 10.0147C1.9675 10.8172 3.44222 11.2753 5.03256 11.2753C10.2018 11.2753 13.0279 6.99331 13.0279 3.28166C13.0279 3.15748 13.0237 3.03759 13.0177 2.91855C13.5752 2.52289 14.0436 2.02875 14.4256 1.46009Z" fill="#F8F7FF"/>
</svg>
