<svg width="14" height="10" viewBox="0 0 14 10" fill="none" xmlns="http://www.w3.org/2000/svg">
<path fill-rule="evenodd" clip-rule="evenodd" d="M11.8214 0.36248C12.6427 0.408726 13.046 0.530335 13.4177 1.19148C13.8048 1.85177 14.0001 2.98907 14.0001 4.99219V4.99476V4.99905C14.0001 6.99275 13.8048 8.13862 13.4186 8.79205C13.0469 9.4532 12.6435 9.57309 11.8222 9.62876C11.0009 9.67586 8.93786 9.70412 7.15054 9.70412C5.3598 9.70412 3.29587 9.67586 2.47544 9.6279C1.65586 9.57224 1.2525 9.45234 0.877392 8.7912C0.49458 8.13776 0.297607 6.9919 0.297607 4.99819V4.99648V4.99391V4.99134C0.297607 2.98907 0.49458 1.85177 0.877392 1.19148C1.2525 0.529479 1.65672 0.408726 2.4763 0.361624C3.29587 0.306814 5.3598 0.283691 7.15054 0.283691C8.93786 0.283691 11.0009 0.306814 11.8214 0.36248ZM9.71805 4.99399L5.43603 2.42478V7.5632L9.71805 4.99399Z" fill="#F8F7FF"/>
</svg>
