<svg width="22" height="22" viewBox="0 0 22 22" fill="none" xmlns="http://www.w3.org/2000/svg">
<path d="M10.6469 13.2779C12.1 13.2779 13.2779 12.1 13.2779 10.6469C13.2779 9.19387 12.1 8.01594 10.6469 8.01594C9.19387 8.01594 8.01594 9.19387 8.01594 10.6469C8.01594 12.1 9.19387 13.2779 10.6469 13.2779Z" stroke="#80A0FF" stroke-width="2" stroke-linecap="round" stroke-linejoin="round"/>
<path d="M17.1367 13.2779C17.0199 13.5424 16.9851 13.8358 17.0367 14.1203C17.0883 14.4048 17.2239 14.6673 17.4261 14.874L17.4787 14.9266C17.6418 15.0895 17.7711 15.283 17.8594 15.4959C17.9477 15.7088 17.9931 15.9371 17.9931 16.1676C17.9931 16.3981 17.9477 16.6263 17.8594 16.8393C17.7711 17.0522 17.6418 17.2456 17.4787 17.4085C17.3158 17.5716 17.1223 17.701 16.9094 17.7893C16.6965 17.8775 16.4682 17.923 16.2377 17.923C16.0072 17.923 15.779 17.8775 15.5661 17.7893C15.3531 17.701 15.1597 17.5716 14.9968 17.4085L14.9442 17.3559C14.7375 17.1537 14.475 17.0181 14.1905 16.9665C13.906 16.9149 13.6126 16.9498 13.3481 17.0665C13.0887 17.1777 12.8674 17.3623 12.7116 17.5976C12.5558 17.8328 12.4722 18.1086 12.4711 18.3908V18.5399C12.4711 19.005 12.2863 19.4512 11.9573 19.7801C11.6284 20.109 11.1823 20.2938 10.7171 20.2938C10.2519 20.2938 9.80576 20.109 9.47682 19.7801C9.14789 19.4512 8.96309 19.005 8.96309 18.5399V18.4609C8.9563 18.1706 8.86234 17.8891 8.69343 17.6529C8.52451 17.4168 8.28845 17.2369 8.01594 17.1367C7.75143 17.0199 7.458 16.9851 7.17351 17.0367C6.88902 17.0883 6.6265 17.2239 6.41981 17.4261L6.36719 17.4787C6.2043 17.6418 6.01085 17.7711 5.79792 17.8594C5.58499 17.9477 5.35675 17.9931 5.12625 17.9931C4.89575 17.9931 4.66751 17.9477 4.45458 17.8594C4.24165 17.7711 4.0482 17.6418 3.88531 17.4787C3.72223 17.3158 3.59285 17.1223 3.50459 16.9094C3.41632 16.6965 3.37089 16.4682 3.37089 16.2377C3.37089 16.0072 3.41632 15.779 3.50459 15.5661C3.59285 15.3531 3.72223 15.1597 3.88531 14.9968L3.93793 14.9442C4.1401 14.7375 4.27573 14.475 4.32731 14.1905C4.3789 13.906 4.34407 13.6126 4.22733 13.3481C4.11616 13.0887 3.93157 12.8674 3.69628 12.7116C3.46099 12.5558 3.18528 12.4722 2.90307 12.4711H2.75399C2.2888 12.4711 1.84267 12.2863 1.51373 11.9573C1.18479 11.6284 1 11.1823 1 10.7171C1 10.2519 1.18479 9.80576 1.51373 9.47682C1.84267 9.14789 2.2888 8.96309 2.75399 8.96309H2.83291C3.12319 8.9563 3.40472 8.86234 3.64089 8.69343C3.87706 8.52451 4.05695 8.28845 4.15717 8.01594C4.27391 7.75143 4.30874 7.458 4.25715 7.17351C4.20557 6.88902 4.06994 6.6265 3.86777 6.41981L3.81515 6.36719C3.65207 6.2043 3.52269 6.01085 3.43443 5.79792C3.34616 5.58499 3.30073 5.35675 3.30073 5.12625C3.30073 4.89575 3.34616 4.66751 3.43443 4.45458C3.52269 4.24165 3.65207 4.0482 3.81515 3.88531C3.97804 3.72223 4.17149 3.59285 4.38442 3.50459C4.59735 3.41632 4.82559 3.37089 5.05609 3.37089C5.28659 3.37089 5.51483 3.41632 5.72776 3.50459C5.94069 3.59285 6.13414 3.72223 6.29704 3.88531L6.34965 3.93793C6.55634 4.1401 6.81886 4.27573 7.10335 4.32731C7.38784 4.3789 7.68127 4.34407 7.94578 4.22733H8.01594C8.27533 4.11616 8.49655 3.93157 8.65237 3.69628C8.80819 3.46099 8.89181 3.18528 8.89293 2.90307V2.75399C8.89293 2.2888 9.07773 1.84267 9.40666 1.51373C9.7356 1.18479 10.1817 1 10.6469 1C11.1121 1 11.5582 1.18479 11.8872 1.51373C12.2161 1.84267 12.4009 2.2888 12.4009 2.75399V2.83291C12.402 3.11512 12.4856 3.39084 12.6415 3.62612C12.7973 3.86141 13.0185 4.046 13.2779 4.15717C13.5424 4.27391 13.8358 4.30874 14.1203 4.25715C14.4048 4.20557 14.6673 4.06994 14.874 3.86777L14.9266 3.81515C15.0895 3.65207 15.283 3.52269 15.4959 3.43443C15.7088 3.34616 15.9371 3.30073 16.1676 3.30073C16.3981 3.30073 16.6263 3.34616 16.8393 3.43443C17.0522 3.52269 17.2456 3.65207 17.4085 3.81515C17.5716 3.97804 17.701 4.17149 17.7893 4.38442C17.8775 4.59735 17.923 4.82559 17.923 5.05609C17.923 5.28659 17.8775 5.51483 17.7893 5.72776C17.701 5.94069 17.5716 6.13414 17.4085 6.29704L17.3559 6.34965C17.1537 6.55634 17.0181 6.81886 16.9665 7.10335C16.9149 7.38784 16.9498 7.68127 17.0665 7.94578V8.01594C17.1777 8.27533 17.3623 8.49655 17.5976 8.65237C17.8328 8.80819 18.1086 8.89181 18.3908 8.89293H18.5399C19.005 8.89293 19.4512 9.07773 19.7801 9.40666C20.109 9.7356 20.2938 10.1817 20.2938 10.6469C20.2938 11.1121 20.109 11.5582 19.7801 11.8872C19.4512 12.2161 19.005 12.4009 18.5399 12.4009H18.4609C18.1787 12.402 17.903 12.4856 17.6677 12.6415C17.4324 12.7973 17.2478 13.0185 17.1367 13.2779Z" stroke="#80A0FF" stroke-width="2" stroke-linecap="round" stroke-linejoin="round"/>
</svg>
