<svg width="40" height="43" viewBox="0 0 40 43" fill="none" xmlns="http://www.w3.org/2000/svg">
<path d="M13.18 24.4445L26.84 32.2055M26.82 10.7945L13.18 18.5555M38 7.85C38 11.0809 35.3137 13.7 32 13.7C28.6863 13.7 26 11.0809 26 7.85C26 4.61913 28.6863 2 32 2C35.3137 2 38 4.61913 38 7.85ZM14 21.5C14 24.7309 11.3137 27.35 8 27.35C4.68629 27.35 2 24.7309 2 21.5C2 18.2691 4.68629 15.65 8 15.65C11.3137 15.65 14 18.2691 14 21.5ZM38 35.15C38 38.3809 35.3137 41 32 41C28.6863 41 26 38.3809 26 35.15C26 31.9191 28.6863 29.3 32 29.3C35.3137 29.3 38 31.9191 38 35.15Z" stroke="#264ECA" stroke-width="3" stroke-linecap="round" stroke-linejoin="round"/>
</svg>
