<svg width="22" height="22" viewBox="0 0 22 22" fill="none" xmlns="http://www.w3.org/2000/svg">
<path d="M6.08062 9.99994L10.1451 1C10.9536 1 11.729 1.31607 12.3006 1.87867C12.8723 2.44128 13.1935 3.20434 13.1935 3.99998V7.99996H18.9447C19.2393 7.99667 19.5311 8.05646 19.7999 8.17517C20.0687 8.29389 20.308 8.46869 20.5013 8.68747C20.6946 8.90624 20.8373 9.16377 20.9194 9.4422C21.0016 9.72063 21.0212 10.0133 20.977 10.2999L19.5747 19.2999C19.5012 19.7768 19.2551 20.2115 18.8816 20.5239C18.5082 20.8363 18.0326 21.0053 17.5425 20.9999H6.08062M6.08062 9.99994V20.9999M6.08062 9.99994H3.03225C2.49326 9.99994 1.97635 10.2107 1.59523 10.5857C1.21411 10.9608 1 11.4695 1 11.9999V18.9999C1 19.5303 1.21411 20.039 1.59523 20.4141C1.97635 20.7892 2.49326 20.9999 3.03225 20.9999H6.08062" stroke="#80A0FF" stroke-width="2" stroke-linecap="round" stroke-linejoin="round"/>
</svg>
