<svg width="38" height="43" viewBox="0 0 38 43" fill="none" xmlns="http://www.w3.org/2000/svg">
<path d="M22.4595 39.9569C22.1079 40.5783 21.6032 41.0941 20.996 41.4527C20.3888 41.8113 19.7003 42 18.9995 42C18.2988 42 17.6103 41.8113 17.0031 41.4527C16.3959 41.0941 15.8912 40.5783 15.5395 39.9569M31 13.3022C31 10.0394 29.7357 6.91033 27.4853 4.60323C25.2348 2.29612 22.1826 1 19 1C15.8174 1 12.7652 2.29612 10.5147 4.60323C8.26428 6.91033 7 10.0394 7 13.3022C7 27.6547 1 31.7555 1 31.7555H37C37 31.7555 31 27.6547 31 13.3022Z" stroke="#004999" stroke-width="2" stroke-linecap="round" stroke-linejoin="round"/>
</svg>
