<svg width="118" height="118" viewBox="0 0 118 118" fill="none" xmlns="http://www.w3.org/2000/svg">
<path d="M117.997 62.6325C117.555 61.7115 117.678 60.7906 117.997 59.8696C117.997 60.7906 117.997 61.7115 117.997 62.6325Z" fill="#3ABF7C"/>
<path d="M58.1268 0.00675392C57.283 0.315803 56.4392 0.454876 55.5923 0.00675392C56.4361 0.00675392 57.283 0.00675392 58.1268 0.00675392Z" fill="#3ABF7C"/>
<path d="M62.7318 0.00675392C61.888 0.470328 61.0442 0.309622 60.1973 0.00675392C61.0411 0.00675392 61.888 0.00675392 62.7318 0.00675392Z" fill="#3ABF7C"/>
<path d="M117.997 58.0277C117.681 57.184 117.549 56.3403 117.997 55.4935C117.997 56.3403 117.997 57.184 117.997 58.0277Z" fill="#3ABF7C"/>
<path d="M117.997 54.8037C117.92 54.7141 117.879 54.6121 117.879 54.4916C117.91 50.8603 117.24 47.3309 116.319 43.8356C113.852 34.4992 109.333 26.263 102.858 19.124C98.5245 14.3492 93.539 10.347 87.8858 7.21939C82.3748 4.17526 76.5454 2.00882 70.3514 0.791166C67.9776 0.324502 65.5791 0.265783 63.193 0C63.0384 0 62.887 0 62.7324 0C61.8886 0.18852 61.0448 0.18852 60.1979 0C59.5056 0 58.8163 0 58.1239 0C57.2801 0.18852 56.4363 0.18852 55.5894 0C55.2834 0 54.9744 0 54.6684 0C53.3888 0.210154 52.0844 0.114348 50.8048 0.281235C43.2106 1.27637 36.1263 3.80749 29.4995 7.59643C21.8991 11.9571 15.5907 17.7642 10.5619 24.9341C5.5794 32.0392 2.28454 39.8643 0.732934 48.4157C-0.14796 53.2739 -0.042871 58.1693 0.0838541 63.077C0.25076 69.4589 1.82092 75.5162 4.21015 81.3758C7.93154 90.4989 13.6465 98.1881 21.1913 104.517C26.1429 108.674 31.6724 111.87 37.6903 114.2C43.3404 116.388 49.1574 117.748 55.2649 117.933C61.5764 118.128 67.8354 117.983 73.9708 116.317C86.0498 113.032 96.228 106.712 104.317 97.1342C111.253 88.9228 115.626 79.4968 117.468 68.8964C117.777 67.1224 117.719 65.3238 118 63.556C118 63.2501 118 62.941 118 62.635C117.805 61.7141 117.805 60.7931 118 59.8721C118 59.2571 118 58.6452 118 58.0302C117.811 57.1865 117.811 56.3428 118 55.496C117.997 55.2642 117.997 55.0355 117.997 54.8037ZM59.011 109.453C31.0975 109.441 8.45389 86.7563 8.54043 58.8894C8.62698 30.9544 31.1006 8.49268 59.0172 8.44632C86.9091 8.39687 109.587 31.0564 109.559 58.9388C109.528 86.8583 86.906 109.465 59.011 109.453Z" fill="#3ABF7C"/>
<path d="M29.5855 58.927C30.9022 58.9239 31.9191 59.542 32.8154 60.4444C37.0716 64.7093 41.3493 68.9464 45.5745 73.2391C46.239 73.9128 46.5543 73.9406 47.2405 73.2514C59.8048 60.6391 72.4062 48.0639 84.986 35.4671C85.972 34.4812 87.0414 33.7395 88.491 33.7673C90.123 33.8013 91.3717 34.5337 92.1475 35.9585C92.9264 37.3832 92.8615 38.8357 91.9837 40.2079C91.6993 40.6529 91.3192 41.0485 90.9421 41.4286C77.2712 55.1041 63.5942 68.7764 49.9172 82.4457C47.5557 84.8068 45.2778 84.8192 42.9349 82.4797C37.5846 77.1393 32.2375 71.7989 26.8996 66.4493C25.0852 64.629 24.8225 62.3142 26.1887 60.5557C27.0201 59.4895 28.2224 58.9146 29.5855 58.927Z" fill="#3ABF7C"/>
</svg>
