<svg width="19" height="19" viewBox="0 0 19 19" fill="none" xmlns="http://www.w3.org/2000/svg">
<path d="M17.8423 8.88709L10.0237 16.261C9.06584 17.1644 7.76674 17.6719 6.41215 17.6719C5.05757 17.6719 3.75846 17.1644 2.80063 16.261C1.84279 15.3576 1.30469 14.1324 1.30469 12.8549C1.30469 11.5773 1.84279 10.3521 2.80063 9.44876L10.6192 2.07485C11.2578 1.47261 12.1238 1.13428 13.0269 1.13428C13.93 1.13428 14.796 1.47261 15.4346 2.07485C16.0731 2.67709 16.4319 3.4939 16.4319 4.3456C16.4319 5.19729 16.0731 6.0141 15.4346 6.61634L7.60749 13.9902C7.28821 14.2914 6.85517 14.4605 6.40364 14.4605C5.95212 14.4605 5.51908 14.2914 5.1998 13.9902C4.88053 13.6891 4.70116 13.2807 4.70116 12.8549C4.70116 12.429 4.88053 12.0206 5.1998 11.7195L12.4229 4.91529" stroke="#80A0FF" stroke-width="2" stroke-linecap="round" stroke-linejoin="round"/>
</svg>
