<svg width="84" height="84" viewBox="0 0 84 84" fill="none" xmlns="http://www.w3.org/2000/svg">
<path d="M69.0469 31.563C71.6744 33.1204 72.9078 35.4372 72.8202 38.4787C72.8141 38.668 72.8406 38.8574 72.8528 39.0467C72.8548 40.087 72.8569 41.1253 72.8569 42.1656C72.8447 43.3077 72.8548 44.4518 72.806 45.5919C72.7836 46.1111 72.9648 46.223 73.4552 46.221C75.8772 46.2108 78.2992 46.2393 80.7212 46.2536C82.4308 46.7381 83.4281 47.9291 84 49.5455C84 54.8509 84 60.1563 84 65.4617C83.8229 65.4861 83.8229 65.6449 83.7761 65.7609C82.9925 67.697 81.5536 68.6213 79.4695 68.5969C78.3012 68.5826 77.133 68.6152 75.9647 68.6254C75.0733 68.6152 74.1818 68.6132 73.2924 68.5867C72.9627 68.5765 72.7958 68.6437 72.8101 69.0244C72.8447 69.914 72.8426 70.8057 72.8569 71.6954C72.8426 73.4157 72.8406 75.136 72.8141 76.8563C72.7694 79.9772 71.0129 82.5057 68.2083 83.5745C67.7361 83.7537 67.207 83.7048 66.7755 84C50.0985 84 33.4214 84 16.7444 84C16.6671 83.7272 16.4045 83.7638 16.2173 83.7028C13.1786 82.7113 11.2899 80.2011 11.2003 77.011C11.18 76.2781 11.1759 75.5452 11.1637 74.8123C11.1617 73.772 11.1596 72.7337 11.1576 71.6934C11.1718 70.8485 11.1596 70.0036 11.2064 69.1628C11.2329 68.6844 11.0558 68.5765 10.606 68.5806C8.69898 68.603 6.78989 68.5765 4.88081 68.5969C4.05652 68.607 3.25463 68.5338 2.47308 68.2671C1.86453 67.9026 1.3028 67.4792 0.828581 66.9478C0.203752 65.9828 -0.00791616 64.9263 0.000224928 63.774C0.0327893 59.4376 0.0104013 55.0993 0.0144718 50.7609C0.0165071 47.9413 1.718 46.2352 4.53278 46.2108C5.37538 46.2027 6.21798 46.1742 7.06059 46.1538C8.28378 46.1762 9.50698 46.1884 10.7302 46.223C11.0802 46.2332 11.2166 46.1151 11.2064 45.7589C11.1779 44.5618 11.1718 43.3627 11.1556 42.1656C11.3021 40.368 11.0497 38.5581 11.3062 36.7625C11.76 33.5846 14.4059 31.0825 17.5992 30.8484C18.0144 30.8179 18.2322 30.7751 18.2261 30.2682C18.1915 28.0003 18.1996 25.7303 18.1935 23.4624C18.2729 22.3691 18.3523 21.2779 18.4317 20.1847C18.9954 17.3101 19.8706 14.5495 21.3401 11.9904C27.222 1.74611 39.6168 -2.64519 50.6439 1.62193C50.8719 1.70947 51.108 1.77665 51.34 1.85401C52.0564 2.20825 52.7748 2.56045 53.4913 2.91468C55.8196 4.25426 57.8875 5.92365 59.7355 7.86787C60.2728 8.53563 60.8121 9.20338 61.3494 9.87113C63.0143 12.3019 64.2558 14.9302 65.0659 17.7641C65.2185 18.5214 65.3732 19.2787 65.5258 20.0361C65.9817 23.3158 65.766 26.6139 65.7721 29.9038C65.7741 30.7201 66.0163 30.9746 66.7714 30.826C67.5509 31.0153 68.3141 31.2393 69.0469 31.563ZM81.1791 63.8249C81.1771 62.7846 81.1771 61.7442 81.175 60.7039C81.1852 57.2817 81.1974 53.8615 81.1995 50.4392C81.1995 50.0239 81.0855 49.6371 80.6988 49.3928C80.5136 49.1261 80.2347 49.0366 79.9335 49.0345C79.156 49.0304 78.3786 49.0467 77.6031 49.0549C73.7219 48.9958 69.8386 48.9836 65.9573 49.061C64.9193 48.9877 63.8793 48.9938 62.8413 49.0549C58.96 48.9958 55.0767 48.9836 51.1955 49.061C50.1575 48.9877 49.1175 48.9938 48.0795 49.0549C44.1982 48.9958 40.3149 48.9836 36.4336 49.061C35.3956 48.9877 34.3556 48.9938 33.3176 49.0549C29.4364 48.9958 25.5531 48.9836 21.6718 49.061C20.6338 48.9877 19.5938 48.9938 18.5558 49.0549C14.6745 48.9958 10.7912 48.9836 6.90998 49.061C6.01649 49.0488 5.12097 49.0081 4.22952 49.0284C3.34825 49.0488 2.84147 49.576 2.82315 50.4779C2.80483 51.3717 2.8374 52.2674 2.84757 53.1612C2.8374 54.4376 2.81501 55.7121 2.81908 56.9885C2.82722 59.5394 2.85164 62.0903 2.86792 64.6412C2.96562 65.2866 3.37471 65.6673 3.97715 65.763C4.45137 65.8383 4.94797 65.7732 5.4344 65.7711C9.31567 65.7691 13.1969 65.7671 17.0782 65.7671C18.1182 65.7691 19.1582 65.7711 20.1983 65.7711C24.0795 65.7691 27.9608 65.7671 31.8421 65.7671C32.8821 65.7691 33.9221 65.7711 34.9621 65.7711C38.8434 65.7691 42.7247 65.7671 46.6059 65.7671C47.646 65.7691 48.686 65.7711 49.726 65.7711C53.6073 65.7691 57.4885 65.7671 61.3698 65.7671C62.4098 65.7691 63.4498 65.7711 64.4899 65.7711C68.3711 65.7691 72.2524 65.7671 76.1337 65.7671C77.1737 65.7691 78.2137 65.7711 79.2537 65.7711C80.7517 65.8424 81.2483 65.3416 81.1791 63.8249ZM14.0355 38.723C13.9785 39.8183 13.9663 40.9136 14.0436 42.0068C14.0294 43.2568 14.0233 44.5089 13.9927 45.7589C13.9846 46.1334 14.1515 46.219 14.4832 46.2149C16.9296 46.1884 19.376 46.1721 21.8245 46.1538C22.9174 46.2536 24.0103 46.2393 25.1033 46.162C26.8679 46.1782 28.6324 46.2088 30.397 46.2067C32.4608 46.2047 34.5246 46.1721 36.5863 46.1518C37.6792 46.2515 38.7722 46.2393 39.8651 46.1599C41.6297 46.1762 43.3943 46.2067 45.1589 46.2047C47.2226 46.2027 49.2864 46.1701 51.3481 46.1497C52.4411 46.2495 53.534 46.2373 54.6269 46.1579C56.3915 46.1742 58.1561 46.2047 59.9207 46.2027C61.9845 46.2006 64.0482 46.1681 66.112 46.1477C67.2538 46.1681 68.3976 46.1843 69.5394 46.2149C69.8813 46.2251 70.034 46.1131 70.0238 45.7487C69.9932 44.6045 69.9851 43.4604 69.9668 42.3163C69.977 40.7385 70.0604 39.1587 69.981 37.587C69.8772 35.5634 68.5747 34.1302 66.631 33.7067C65.5889 33.5153 64.5387 33.6151 63.4926 33.6375C59.6113 33.6395 55.7301 33.6395 51.8468 33.6416C50.8067 33.6395 49.7687 33.6395 48.7287 33.6375C44.8475 33.6395 40.9662 33.6395 37.0829 33.6416C36.0429 33.6395 35.0049 33.6395 33.9649 33.6375C30.0836 33.6395 26.2023 33.6395 22.319 33.6416C21.279 33.6395 20.241 33.6395 19.201 33.6375C15.6616 33.1916 13.6447 35.828 14.0355 38.723ZM63.8264 81.1824C64.5611 81.1885 65.2958 81.2313 66.0265 81.1946C68.019 81.0928 69.6106 79.6352 69.9302 77.6624C70.0665 76.8237 70.0299 75.9829 69.977 75.1421C70.034 74.0468 70.0482 72.9515 69.9688 71.8583C69.9851 70.9299 69.9831 70.0016 70.0218 69.0753C70.0401 68.6457 69.8406 68.5887 69.4804 68.5908C66.7205 68.6111 63.9607 68.6172 61.2009 68.6294C60.1283 68.6274 59.0537 68.6274 57.9811 68.6254C54.1324 68.6274 50.2857 68.6274 46.437 68.6294C45.3644 68.6274 44.2898 68.6274 43.2172 68.6254C39.3685 68.6274 35.5218 68.6274 31.6731 68.6294C30.6005 68.6274 29.5259 68.6274 28.4533 68.6254C24.6107 68.6274 20.7681 68.6274 16.9256 68.6294C16.1135 68.6193 15.3014 68.6254 14.4914 68.5908C14.0904 68.5745 13.9764 68.7312 13.9907 69.1099C14.0233 69.9202 14.0253 70.7325 14.0416 71.5427C14.0314 73.4238 13.9378 75.309 14.0314 77.1861C14.1189 78.9532 14.992 80.2744 16.7444 80.8831C17.6338 81.3534 18.5904 81.1987 19.5327 81.1844C23.414 81.1824 27.2953 81.1824 31.1745 81.1804C32.2145 81.1824 33.2545 81.1824 34.2946 81.1844C38.1758 81.1824 42.0571 81.1824 45.9363 81.1804C46.9763 81.1824 48.0164 81.1824 49.0564 81.1844C52.9377 81.1824 56.8189 81.1824 60.6982 81.1804C61.7463 81.1804 62.7864 81.1804 63.8264 81.1824ZM57.4478 28.0573C57.4377 28.8227 57.4377 29.5862 57.4092 30.3496C57.3969 30.6998 57.5109 30.824 57.8732 30.8199C59.4302 30.8036 60.9892 30.8036 62.5462 30.8199C62.9125 30.824 63.0102 30.6957 63.0082 30.3476C62.9838 27.8883 62.9756 25.429 62.9614 22.9697C62.9532 22.0271 62.8739 21.0927 62.6479 20.1765C62.1595 17.0617 60.9851 14.2339 59.1127 11.6973C58.7423 11.0662 58.3047 10.488 57.7613 9.99125C55.9071 7.78033 53.6785 6.06412 51.0367 4.89352C50.3183 4.45785 49.5489 4.14433 48.7328 3.94685C45.1874 2.70092 41.5808 2.43626 37.9051 3.26077C36.2851 3.48268 34.7606 3.99571 33.3075 4.73879C31.9438 5.23961 30.7389 6.0234 29.5849 6.88253C26.6786 9.04866 24.393 11.7258 22.9561 15.0849C22.2051 16.5344 21.7064 18.0674 21.4724 19.6839C21.281 20.1949 21.2302 20.7344 21.1691 21.2698C20.8638 23.9815 21.0612 26.7014 21.0144 29.4172C20.99 30.885 21.0103 30.885 22.4818 30.7731C23.7071 30.7873 24.9343 30.7914 26.1596 30.824C26.5402 30.8341 26.6134 30.6672 26.6073 30.3374C26.5829 29.1383 26.5768 27.9392 26.5646 26.7401C26.5768 25.6489 26.5544 24.5556 26.6094 23.4664C26.9106 17.5157 29.6419 13.045 34.8685 10.1663C37.9133 8.4888 41.2084 8.11624 44.6195 8.5682C45.4418 8.77993 46.262 8.99165 47.0842 9.20134C49.7728 10.2335 52.0584 11.8418 53.9553 14.0059C54.3359 14.5352 54.7165 15.0625 55.0971 15.5918C55.2721 15.9277 55.4411 16.2657 55.6202 16.5975C57.0286 19.2014 57.4723 22.0149 57.4438 24.9323C57.4458 25.9766 57.4458 27.0169 57.4478 28.0573ZM41.5178 11.2331C35.0171 11.398 29.5626 16.8459 29.4425 23.2954C29.4404 24.3907 29.4384 25.486 29.4343 26.5813C29.4221 27.8374 29.4201 29.0955 29.3916 30.3516C29.3835 30.714 29.5178 30.8219 29.8678 30.8179C32.3265 30.7934 34.7851 30.7853 37.2457 30.7731C38.3305 30.7751 39.4174 30.7771 40.5022 30.7792C44.3386 30.7771 48.1731 30.7751 52.0096 30.7731C55.2945 30.7547 54.5537 31.4815 54.5801 28.214C54.5842 26.5019 54.6554 24.7877 54.574 23.0817C54.4906 21.3105 54.0896 19.5963 53.1615 18.045C52.8603 17.304 52.437 16.6423 51.8854 16.0621C50.0028 13.5804 47.5361 12.0474 44.4689 11.4937C43.5001 11.225 42.5171 11.1395 41.5178 11.2331Z" fill="#3ABF7C"/>
<path d="M64.1238 61.614C63.383 61.5896 62.8803 61.2333 62.6137 60.5412C62.5343 59.739 62.8986 59.2036 63.5784 58.8005C64.2744 58.3872 64.9298 57.9048 65.6747 57.4019C64.8464 56.8482 64.0974 56.3636 63.3647 55.8547C62.5974 55.3213 62.3959 54.5619 62.8152 53.8819C63.2568 53.1674 64.0729 53.0086 64.8789 53.5094C65.4753 53.8799 66.0512 54.281 66.786 54.7655C66.786 54.2402 66.7778 53.8473 66.788 53.4565C66.8104 52.5159 67.2337 51.9438 67.9705 51.8359C68.748 51.724 69.2425 52.0741 69.5946 52.9923C69.5946 53.4829 69.5926 53.9715 69.5967 54.4622C69.5967 54.509 69.6333 54.5538 69.6944 54.6983C70.2419 54.342 70.7873 54.0143 71.3022 53.6397C71.8192 53.263 72.3585 53.1022 72.9813 53.2977C74.1211 54.2341 74.0783 55.1462 72.8551 55.9809C72.1835 56.4389 71.5058 56.8889 70.7446 57.3999C71.52 57.9231 72.2405 58.3995 72.9528 58.8901C73.8178 59.4846 74.0376 60.2561 73.5573 60.9727C73.0872 61.6751 72.2608 61.7667 71.3959 61.2109C70.8341 60.8506 70.2765 60.4841 69.6476 60.077C69.4522 61.2924 70.0404 63.0065 68.1353 62.9455C66.4013 62.8905 66.8816 61.3005 66.7575 60.1503C65.7765 60.5106 65.1211 61.382 64.1238 61.614Z" fill="#3ABF7C"/>
<path d="M47.5788 61.1193C46.3963 61.7728 46.0686 61.7606 45.1792 61.0277C44.7986 59.9101 44.9411 59.4866 45.918 58.829C46.5713 58.3872 47.2246 57.9455 47.878 57.5017C47.8963 57.4894 47.9024 57.4548 47.9533 57.3469C47.2348 56.8644 46.498 56.3799 45.7694 55.8811C44.9594 55.3253 44.7436 54.5517 45.1894 53.8595C45.6514 53.1429 46.4818 53.0248 47.3305 53.5664C47.88 53.9165 48.4214 54.2789 48.9689 54.6352C48.9852 54.6454 49.0218 54.6271 49.1154 54.6067C49.3128 53.5277 48.6982 51.899 50.6744 51.842C51.4967 51.8196 51.859 52.3734 52.0197 53.656C51.9404 53.9776 51.9424 54.2972 52.0584 54.7166C52.6263 54.34 53.1778 54.0102 53.6907 53.6295C54.3277 53.1572 54.9648 53.0737 55.6547 53.4829C56.4383 54.5578 56.3182 55.2378 55.207 55.9911C54.5537 56.4349 53.8963 56.8746 53.2409 57.3184C53.2246 57.3286 53.2226 57.3612 53.1839 57.4589C53.8861 57.9292 54.6086 58.4056 55.321 58.8942C56.1737 59.4785 56.3976 60.2745 55.9214 60.9809C55.4492 61.6792 54.6208 61.7708 53.7599 61.213C53.2165 60.8608 52.6771 60.5025 51.9709 60.0403C51.9709 60.6287 51.9912 61.0725 51.9668 61.5163C51.9139 62.4345 51.3542 63.0106 50.5543 63.0045C49.7524 62.9964 49.2151 62.4202 49.1683 61.4919C49.1459 61.0664 49.1643 60.6368 49.1643 60.0322C48.5415 60.4536 48.0611 60.7855 47.5788 61.1193Z" fill="#3ABF7C"/>
<path d="M34.8934 54.3502C35.2801 54.114 35.6709 53.886 36.0495 53.6376C37.004 53.0126 37.468 53.0452 38.3188 53.8148C38.677 54.8897 38.5325 55.3274 37.6024 55.9605C36.9267 56.4206 36.2448 56.8746 35.4653 57.3978C36.2062 57.8925 36.9022 58.3506 37.5902 58.8209C38.5121 59.4479 38.7645 60.2256 38.2964 60.9504C37.81 61.7016 36.9633 61.7728 36.0067 61.1397C35.4938 60.8018 34.983 60.4597 34.3439 60.0342C34.3439 60.6022 34.3561 61.0013 34.3419 61.4003C34.3073 62.3734 33.7638 62.9882 32.9457 62.9984C32.1153 63.0066 31.5881 62.4182 31.5413 61.4308C31.5312 61.2415 31.5088 61.0522 31.4925 60.8649C31.5739 60.6287 31.58 60.3946 31.4396 60.0872C30.89 60.4536 30.3426 60.7916 29.8236 61.1682C29.097 61.6975 28.3887 61.7321 27.6702 61.1723C27.1004 60.0627 27.2347 59.5334 28.2645 58.8372C28.9199 58.3934 29.5753 57.9516 30.2286 57.5078C30.2489 57.4935 30.255 57.463 30.3202 57.349C29.62 56.8807 28.9077 56.4084 28.2015 55.928C27.3263 55.3315 27.0902 54.5721 27.5522 53.8535C28.0223 53.1205 28.8588 53.0269 29.7686 53.6132C30.3141 53.9654 30.8534 54.3258 31.5474 54.7818C31.5474 54.1609 31.525 53.6845 31.5515 53.2081C31.5983 52.3714 32.1071 51.8502 32.8683 51.8217C33.66 51.7911 34.2442 52.3103 34.3317 53.1613C34.3765 53.5949 34.3704 54.0326 34.3866 54.4683C34.4151 54.5293 34.4436 54.5925 34.4701 54.6535C34.5515 54.5925 34.6329 54.5293 34.7143 54.4683C34.7713 54.4316 34.8324 54.3909 34.8934 54.3502Z" fill="#3ABF7C"/>
<path d="M18.8548 53.3058C19.6689 53.0554 20.308 53.2956 20.7863 53.9898C21.0387 54.9202 20.6805 55.5615 19.8745 56.042C19.2029 56.441 18.5719 56.9072 17.8372 57.3999C18.6187 57.9251 19.3413 58.4015 20.0516 58.8921C20.884 59.4683 21.1079 60.2989 20.6337 60.987C20.1493 61.6853 19.3392 61.7688 18.4702 61.2028C17.9247 60.8486 17.3854 60.4862 16.7036 60.0342C16.7036 60.533 16.7097 60.9219 16.7015 61.3107C16.6852 62.3083 16.2008 62.9312 15.3969 62.9943C14.5991 63.0574 14.0618 62.5403 13.8705 61.5265C13.8705 61.0745 13.8705 60.6246 13.8705 60.0363C13.2477 60.4495 12.6839 60.8017 12.1466 61.1885C11.5686 61.6059 10.9743 61.6995 10.323 61.3982C9.38064 60.3986 9.46612 59.6189 10.5977 58.8494C11.2734 58.3893 11.9471 57.9271 12.6188 57.465C12.635 57.4528 12.631 57.4141 12.6493 57.3245C11.9492 56.8583 11.2246 56.386 10.5123 55.8954C9.6554 55.307 9.45188 54.5212 9.94645 53.8066C10.4146 53.1307 11.2144 53.0269 12.0387 53.5521C12.6127 53.9166 13.1724 54.3013 13.7992 54.7166C13.9926 54.1934 13.8705 53.7069 13.901 53.2386C13.958 52.3632 14.4688 51.8278 15.2748 51.8217C16.0584 51.8156 16.6344 52.3612 16.6913 53.2122C16.7219 53.6723 16.6974 54.1364 16.6974 54.7859C17.4932 54.2423 18.1751 53.774 18.8548 53.3058Z" fill="#3ABF7C"/>
</svg>
