<svg width="25" height="21" viewBox="0 0 25 21" fill="none" xmlns="http://www.w3.org/2000/svg">
<path d="M17.5853 19.2758V17.2852C17.5853 16.2293 17.1629 15.2166 16.411 14.47C15.6592 13.7234 14.6394 13.3039 13.5762 13.3039H5.55794C4.49466 13.3039 3.47492 13.7234 2.72307 14.47C1.97122 15.2166 1.54883 16.2293 1.54883 17.2852V19.2758M23.5989 19.2758V17.2852C23.5983 16.4031 23.3026 15.5461 22.7584 14.849C22.2142 14.1518 21.4522 13.6538 20.5921 13.4333M16.583 1.4895C17.4454 1.70877 18.2097 2.20682 18.7556 2.90515C19.3014 3.60347 19.5977 4.46234 19.5977 5.34635C19.5977 6.23036 19.3014 7.08923 18.7556 7.78756C18.2097 8.48588 17.4454 8.98394 16.583 9.20321M13.5762 5.34138C13.5762 7.54017 11.7812 9.32264 9.56705 9.32264C7.35288 9.32264 5.55794 7.54017 5.55794 5.34138C5.55794 3.14258 7.35288 1.36011 9.56705 1.36011C11.7812 1.36011 13.5762 3.14258 13.5762 5.34138Z" stroke="#80A0FF" stroke-width="2" stroke-linecap="round" stroke-linejoin="round"/>
</svg>
