<?xml version="1.0" standalone="no"?>
<!DOCTYPE svg PUBLIC "-//W3C//DTD SVG 1.1//EN" "http://www.w3.org/Graphics/SVG/1.1/DTD/svg11.dtd" >
<svg xmlns="http://www.w3.org/2000/svg">
<metadata>Generated by IcoMoon</metadata>
<defs>
<font id="icomoon" horiz-adv-x="1024">
<font-face units-per-em="1024" ascent="960" descent="-64" />
<missing-glyph horiz-adv-x="1024" />
<glyph unicode="&#x20;" horiz-adv-x="512" d="" />
<glyph unicode="&#xe900;" glyph-name="linked-in" d="M230.132 850.38c0-60.541-49.079-109.619-109.62-109.619s-109.619 49.078-109.619 109.619c0 60.542 49.078 109.62 109.619 109.62s109.62-49.078 109.62-109.62zM10.893 646.802h224.125v-689.035h-224.125v689.035zM845.502 638.722l-2.348 0.765c-1.565 0.516-3.123 1.031-4.791 1.49-3.006 0.689-6.012 1.253-9.084 1.754-11.9 2.38-24.927 4.071-40.214 4.071-130.667 0-213.539-95.024-240.85-131.731v131.731h-224.125v-689.035h224.125v375.837c0 0 169.378 235.901 240.85 62.64v-438.476h224.066v464.973c0 104.107-71.351 190.863-167.629 215.982z" />
<glyph unicode="&#xe901;" glyph-name="instagram" d="M351.852 925.867h350.783c161.417 0 292.318-130.901 292.318-292.319v-350.783c0-161.421-130.901-292.316-292.318-292.316h-350.783c-161.418 0-292.319 130.895-292.319 292.316v350.783c0 161.418 130.901 292.319 292.319 292.319zM702.635 78.138c112.838 0 204.623 91.791 204.623 204.625v350.783c0 112.835-91.785 204.623-204.623 204.623h-350.782c-112.835 0-204.623-91.788-204.623-204.623v-350.783c0-112.833 91.788-204.625 204.623-204.625h350.782zM293.388 458.159c0 129.146 104.709 233.855 233.855 233.855s233.856-104.709 233.856-233.855c0-129.146-104.709-233.856-233.856-233.856s-233.855 104.709-233.855 233.856zM381.084 458.157c0-80.563 65.596-146.159 146.159-146.159s146.16 65.596 146.16 146.159c0 80.622-65.596 146.16-146.16 146.16s-146.159-65.538-146.159-146.16zM809.8 709.546c0-17.21-13.947-31.161-31.157-31.161s-31.164 13.951-31.164 31.161c0 17.21 13.954 31.161 31.164 31.161s31.157-13.951 31.157-31.161z" />
<glyph unicode="&#xe902;" glyph-name="search" d="M446.385 960c-246.050 0-446.385-200.335-446.385-446.385 0-246.053 200.335-446.308 446.385-446.308 108.612 0 204.739 43.619 282.231 108.385l198.615-198.615c7.127-7.125 16.972-11.533 27.846-11.533s20.719 4.407 27.846 11.533v0c7.125 7.127 11.533 16.972 11.533 27.846s-4.407 20.719-11.533 27.846l-198.615 198.615c64.766 77.492 108.385 173.619 108.385 282.231 0 246.050-200.255 446.385-446.308 446.385zM446.385 881.231c203.483 0 367.538-164.136 367.538-367.615 0-100.601-40.54-191.182-105.692-257.462-0.84-0.7-1.591-1.379-2.316-2.085l0.008 0.008c-0.698-0.716-1.377-1.468-2.026-2.245l-0.051-0.062c-0.052-0.052-0.102-0.102-0.152-0.152l-0.002-0.002c-66.267-65.064-156.783-105.538-257.308-105.538-203.479 0-367.615 164.055-367.615 367.538 0 203.479 164.136 367.615 367.615 367.615z" />
<glyph unicode="&#xe903;" glyph-name="download" d="M512 946.872c-21.752 0-39.385-17.633-39.385-39.385v0-517.59l-188.051 188.051c-7.127 7.125-16.972 11.533-27.846 11.533s-20.719-4.407-27.846-11.533v0c-7.125-7.127-11.533-16.972-11.533-27.846s4.407-20.719 11.533-27.846l255.282-255.282c0.306-0.3 0.623-0.601 0.946-0.897l0.029-0.026c0.052-0.052 0.103-0.103 0.153-0.153l0.002-0.002c0.496-0.46 1.030-0.929 1.577-1.384l0.064-0.052c0.157-0.129 0.391-0.314 0.627-0.496l0.091-0.068c0.382-0.295 0.866-0.649 1.358-0.992l0.129-0.085c0.079-0.063 0.263-0.197 0.448-0.331l0.116-0.080c0.449-0.321 1.034-0.71 1.63-1.083l0.165-0.096c-0.041 0.015 0.11-0.070 0.261-0.155l0.2-0.102c0.351-0.22 0.888-0.526 1.432-0.82l0.209-0.103c0.111-0.073 0.413-0.243 0.718-0.41l0.206-0.103c0.238-0.129 0.71-0.353 1.187-0.567l0.249-0.1c0.079-0.046 0.417-0.184 0.758-0.318l0.267-0.092c0.225-0.105 0.717-0.296 1.213-0.477l0.274-0.087c-0.052 0.010 0.151-0.076 0.355-0.161l0.26-0.096c0.096-0.045 0.471-0.168 0.849-0.285l0.279-0.074c0.566-0.196 1.424-0.443 2.293-0.66l0.271-0.058c0.485-0.127 1.247-0.288 2.017-0.426l0.239-0.036c-0.137 0.025 0.001-0.010 0.139-0.045l0.271-0.058c0.206-0.036 0.627-0.090 1.050-0.138l0.18-0.017c-0.171 0.028-0.084 0.009 0.003-0.009l0.255-0.044c0.015 0 0.033 0 0.051 0s0.036 0 0.054 0h-0.003c0.56-0.075 1.32-0.147 2.086-0.198l0.119-0.006c-0.065 0.004 0.075-0.015 0.216-0.032l0.194-0.020c0.298-0.020 0.708-0.039 1.12-0.051l0.059-0.001c0.298-0.020 0.708-0.039 1.12-0.051l0.059-0.001c0.512 0.012 0.977 0.031 1.439 0.057l-0.106-0.005c0.030 0 0.066 0 0.102 0s0.072 0 0.108 0h-0.006c0.023 0 0.050 0 0.077 0s0.054 0 0.082 0h-0.004c0.809 0.040 1.518 0.096 2.222 0.169l-0.171-0.015c0.336 0.034 0.495 0.052 0.653 0.072l-0.191-0.019c0.592 0.067 0.996 0.121 1.397 0.182l-0.218-0.027c0.023 0 0.050 0 0.077 0s0.054 0 0.082 0h-0.004c0.664 0.088 1.119 0.16 1.57 0.239l-0.237-0.035c0.655 0.128 1.053 0.217 1.448 0.312l-0.269-0.055c1.005 0.201 1.747 0.378 2.481 0.576l-0.276-0.063c0.409 0.092 0.547 0.127 0.685 0.163l-0.274-0.061c0.778 0.219 1.274 0.376 1.765 0.544l-0.277-0.082c0.252 0.121 0.286 0.138 0.319 0.156l-0.217-0.103c1.089 0.35 1.887 0.646 2.674 0.967l-0.263-0.095c0.641 0.244 1.013 0.399 1.382 0.56l-0.254-0.099c0.692 0.298 1.13 0.504 1.564 0.718l-0.231-0.103c0.328 0.101 0.38 0.119 0.431 0.137l-0.276-0.084c0.975 0.489 1.713 0.898 2.437 1.33l-0.18-0.1c0.827 0.459 1.446 0.833 2.055 1.223l-0.157-0.094c0.299 0.181 0.433 0.266 0.566 0.351l-0.156-0.094c0.463 0.305 0.781 0.524 1.095 0.748l-0.12-0.081c0.52 0.374 0.921 0.677 1.315 0.987l-0.085-0.064c0.052 0.052 0.103 0.103 0.153 0.153l0.002 0.002c0.716 0.564 1.334 1.084 1.935 1.623l-0.037-0.033c0.339 0.291 0.623 0.542 0.903 0.797l-0.031-0.028c0.514 0.488 0.999 0.973 1.471 1.47l0.016 0.017c0.157 0.154 0.307 0.305 0.456 0.456l254.21 254.158c7.125 7.127 11.533 16.972 11.533 27.846s-4.407 20.719-11.533 27.846v0c-7.127 7.125-16.972 11.533-27.846 11.533s-20.719-4.407-27.846-11.533l-188.057-188.051v517.59c0 21.752-17.633 39.385-39.385 39.385v0zM52.513 334.205c-21.752 0-39.385-17.633-39.385-39.385v0-204.205c0-37.511 14.911-73.526 41.436-100.051s62.541-41.436 100.051-41.436h714.769c37.511 0 73.526 14.911 100.051 41.436s41.436 62.541 41.436 100.051v204.205c0 21.752-17.633 39.385-39.385 39.385v0c-21.752 0-39.385-17.633-39.385-39.385v0-204.205c0-16.651-6.586-32.586-18.359-44.359s-27.708-18.359-44.359-18.359h-714.769c-16.651 0-32.585 6.586-44.359 18.359s-18.359 27.708-18.359 44.359v204.205c0 21.752-17.633 39.385-39.385 39.385v0z" />
<glyph unicode="&#xe904;" glyph-name="file" horiz-adv-x="838" d="M151.273 944.485c-36.094 0-70.712-14.491-96.121-40.121s-39.636-60.337-39.636-96.424v-719.879c0-36.086 14.224-70.794 39.636-96.424 25.41-25.633 60.028-40.121 96.121-40.121h535.273c36.093 0 70.712 14.486 96.121 40.121 25.414 25.631 39.636 60.338 39.636 96.424v493.333c0.004 0.234 0.007 0.511 0.007 0.788s-0.002 0.553-0.007 0.829l0.001-0.041c-0.005 1.119-0.049 2.218-0.13 3.306l0.009-0.155c0 0.009 0 0.020 0 0.030s0 0.021 0 0.032v-0.002c0 0.018 0 0.039 0 0.061s0 0.043 0 0.064v-0.003c-0.043 0.651-0.086 1.153-0.138 1.652l0.016-0.198c-0.071 0.74-0.135 1.28-0.209 1.818l0.027-0.242c-0.072 0.524-0.114 0.793-0.159 1.060l0.038-0.272c-0.072 0.524-0.114 0.793-0.159 1.060l0.038-0.272c-0.138 0.819-0.244 1.352-0.359 1.882l0.056-0.306c-0.128 0.565-0.191 0.809-0.255 1.052l0.073-0.325c-0.114 0.591-0.177 0.877-0.243 1.162l0.061-0.313c-0.212 0.836-0.357 1.342-0.511 1.845l0.087-0.33c-0.359 1.31-0.669 2.28-1.010 3.234l0.101-0.325c-0.117 0.388-0.138 0.449-0.158 0.509l0.098-0.327c-0.156 0.51-0.218 0.691-0.281 0.872l0.099-0.327c-0.23 0.617-0.352 0.917-0.478 1.215l0.114-0.306c-0.304 0.822-0.509 1.322-0.722 1.818l0.116-0.303c-0.241 0.51-0.362 0.748-0.486 0.986l0.122-0.258c-0.214 0.549-0.316 0.789-0.42 1.028l0.117-0.3c-0.357 0.725-0.599 1.182-0.849 1.634l0.121-0.24c-0.375 0.701-0.637 1.156-0.906 1.607l0.118-0.213c-0.375 0.701-0.637 1.156-0.906 1.607l0.118-0.213c-0.29 0.468-0.47 0.745-0.652 1.019l0.107-0.171c-0.213 0.355-0.313 0.513-0.414 0.67l0.111-0.186c-0.399 0.611-0.699 1.046-1.005 1.475l0.096-0.141c-0.4 0.545-0.718 0.959-1.043 1.368l0.073-0.095c-0.4 0.545-0.718 0.959-1.043 1.368l0.073-0.095c-0.394 0.479-0.731 0.874-1.074 1.262l0.043-0.050c-0.397 0.456-0.753 0.851-1.116 1.239l0.025-0.027c-0.282 0.29-0.559 0.566-0.839 0.839l-0.010 0.009-1.394 1.394-310 312.667c-0.306 0.337-0.583 0.633-0.864 0.925l0.015-0.016c-0.11 0.099-0.268 0.237-0.427 0.375l-0.058 0.049c-0.325 0.356-0.621 0.672-0.922 0.983l0.013-0.014c-0.209 0.197-0.446 0.414-0.685 0.629l-0.042 0.037c0.105-0.064 0.045-0.025-0.014 0.015l-0.168 0.106c0.043-0.023-0.075 0.057-0.194 0.136l-0.17 0.107c-0.339 0.315-0.714 0.651-1.094 0.982l-0.057 0.049c-0.207 0.164-0.522 0.402-0.841 0.637l-0.129 0.090c-0.644 0.5-1.414 1.058-2.201 1.593l-0.163 0.104c0.035-0.023-0.043 0.036-0.123 0.096l-0.12 0.086c-0.166 0.109-0.542 0.33-0.922 0.546l-0.23 0.12c-0.017 0.018-0.195 0.138-0.374 0.256l-0.172 0.107c-0.131 0.089-0.468 0.29-0.807 0.487l-0.223 0.119c-0.132 0.086-0.488 0.288-0.848 0.484l-0.243 0.122c0.015 0.002-0.203 0.123-0.422 0.242l-0.245 0.122c0.267-0.077 0.207-0.056 0.146-0.036l-0.328 0.097c-0.525 0.285-1.321 0.67-2.13 1.033l-0.294 0.118c0.183-0.081 0.104-0.041 0.024-0.001l-0.266 0.122c0.267-0.077 0.207-0.056 0.146-0.036l-0.328 0.097c-0.624 0.283-1.566 0.652-2.523 0.99l-0.326 0.101c-0.57 0.216-1.479 0.506-2.399 0.768l-0.328 0.080c0.209-0.072 0.109-0.031 0.009 0.010l-0.312 0.112c-0.056 0.029-0.441 0.134-0.829 0.233l-0.323 0.070c-0.126 0.044-0.575 0.149-1.026 0.247l-0.307 0.056c0.1-0.011-0.104 0.031-0.31 0.072l-0.296 0.049c-0.393 0.091-1.092 0.218-1.797 0.329l-0.264 0.034c-0.083 0.024-0.454 0.088-0.826 0.147l-0.265 0.035c-0.115 0.021-0.468 0.064-0.822 0.103l-0.208 0.019c-0.027 0-0.059 0-0.091 0s-0.064 0-0.096 0h0.005c-0.468 0.059-1.157 0.124-1.851 0.173l-0.149 0.009c-0.081 0.001-0.177 0.001-0.273 0.001s-0.192 0-0.287-0.001h0.015c-0.663 0.036-1.447 0.058-2.235 0.061h-312.249zM151.273 851.394h265.697v-268.424c0.003-25.705 20.84-46.543 46.545-46.545h265.697v-448.364c0-11.645-4.617-22.731-12.667-30.848-8.047-8.119-18.772-12.606-30-12.606h-535.273c-11.228 0-21.949 4.484-30 12.606-8.049 8.118-12.667 19.204-12.667 30.848v719.879c0 11.646 4.614 22.726 12.667 30.848s18.773 12.606 30 12.606zM510.061 784.909l154-155.394h-154v155.394z" />
<glyph unicode="&#xe905;" glyph-name="video" horiz-adv-x="1475" d="M1392.080 816.64c-13.508-0.146-25.941-4.628-36.004-12.116l0.164 0.116-417.12-307.2c-15.211-11.316-24.959-29.24-24.959-49.44s9.747-38.124 24.795-49.324l0.164-0.116 417.12-307.2c10.051-7.457 22.699-11.937 36.394-11.937 33.912 0 61.407 27.471 61.446 61.374v614.404c-0.002 33.934-27.512 61.442-61.446 61.442-0.195 0-0.389-0.001-0.584-0.003h0.030zM1331.2 633.68v-371.36l-252.080 185.68 252.080 185.68zM201.040 939.52c-100.051 0-180.56-84.257-180.56-184.32v-614.4c0-100.064 80.511-184.32 180.56-184.32h655.36c100.048 0 180.64 84.254 180.64 184.32v614.4c0 100.064-80.59 184.32-180.64 184.32h-655.36zM201.040 816.64h655.36c31.563 0 57.76-25.775 57.76-61.44v-614.4c0-35.668-26.196-61.44-57.76-61.44h-655.36c-31.567 0-57.68 25.771-57.68 61.44v614.4c0 35.666 26.114 61.44 57.68 61.44z" />
<glyph unicode="&#xe906;" glyph-name="upload" d="M512 947.2c-0.554-0.008-1.077-0.026-1.598-0.054l0.098 0.004c-0.052 0-0.113 0-0.175 0s-0.123 0-0.184 0h0.010c-0.548-0.034-0.98-0.070-1.41-0.113l0.16 0.013c-0.708-0.047-1.294-0.1-1.877-0.166l0.177 0.016c-0.851-0.111-1.498-0.216-2.139-0.338l0.239 0.038c-0.97-0.172-1.695-0.328-2.413-0.505l0.263 0.055c-0.748-0.161-1.235-0.281-1.719-0.412l0.269 0.062c-0.251-0.117-0.284-0.134-0.317-0.151l0.217 0.101c-0.008 0-0.017 0-0.026 0s-0.018 0-0.027 0h0.001c-1.081-0.318-1.879-0.59-2.664-0.888l0.264 0.088c-0.015 0-0.032 0-0.050 0s-0.035 0-0.053 0h0.003c-0.285-0.134-0.35-0.167-0.416-0.201l0.216 0.101c-0.771-0.259-1.267-0.445-1.759-0.641l0.259 0.091c-0.932-0.395-1.605-0.714-2.268-1.051l0.218 0.101c-0.797-0.37-1.354-0.654-1.904-0.951l0.204 0.101c-0.596-0.339-1.004-0.587-1.407-0.843l0.157 0.093c-0.51-0.292-0.836-0.49-1.159-0.694l0.159 0.094c-0.494-0.316-0.837-0.546-1.175-0.782l0.125 0.082c-0.593-0.403-1.049-0.732-1.497-1.070l0.097 0.070c-0.3-0.219-0.496-0.367-0.69-0.516l0.090 0.066c-0.486-0.392-0.893-0.735-1.293-1.087l0.042 0.037c-0.244-0.191-0.407-0.322-0.568-0.454l0.068 0.054c-0.31-0.283-0.586-0.544-0.859-0.809l0.009 0.009c-0.31-0.283-0.586-0.544-0.859-0.809l0.009 0.009c-0.119-0.117-0.233-0.231-0.346-0.346l-0.004-0.004c-0.401-0.4-0.793-0.807-1.175-1.223l-0.025-0.027-254.45-254.4c-6.947-6.949-11.244-16.548-11.244-27.15s4.297-20.201 11.244-27.15v0c6.949-6.947 16.548-11.244 27.15-11.244s20.201 4.297 27.15 11.244l190.45 190.45v-521.7c0-21.208 17.192-38.4 38.4-38.4v0c21.208 0 38.4 17.192 38.4 38.4v0 521.7l190.45-190.45c6.949-6.947 16.548-11.244 27.15-11.244s20.201 4.297 27.15 11.244v0c6.947 6.949 11.244 16.548 11.244 27.15s-4.297 20.201-11.244 27.15l-255.2 255.15c-0.392 0.426-0.767 0.817-1.15 1.2v0c-0.4 0.401-0.807 0.793-1.223 1.175l-0.027 0.025c-0.041 0.036-0.138 0.117-0.236 0.199l-0.064 0.051c-0.141 0.121-0.336 0.285-0.533 0.446l-0.067 0.054c-0.118 0.1-0.297 0.247-0.477 0.393l-0.073 0.057c-0.216 0.176-0.509 0.406-0.805 0.631l-0.095 0.069c-0.302 0.24-0.693 0.535-1.089 0.823l-0.111 0.077c0.067-0.031-0.048 0.035-0.162 0.101l-0.188 0.099c-0.474 0.328-1.094 0.724-1.726 1.103l-0.174 0.097c-0.164 0.11-0.49 0.308-0.82 0.502l-0.18 0.098c-0.232 0.141-0.658 0.374-1.088 0.599l-0.212 0.101c-0.115 0.071-0.443 0.238-0.774 0.4l-0.226 0.1c-0.023 0.022-0.286 0.14-0.551 0.254l-0.249 0.096c0.053-0.014-0.127 0.070-0.309 0.152l-0.241 0.098c-0.113 0.061-0.475 0.212-0.841 0.359l-0.259 0.091c-0.198 0.089-0.662 0.259-1.13 0.419l-0.27 0.081c-0.488 0.193-1.253 0.448-2.028 0.68l-0.272 0.070c0.2-0.042 0.133-0.024 0.066-0.007l-0.266 0.057c0.2-0.042 0.133-0.024 0.066-0.007l-0.266 0.057c-0.028 0.020-0.329 0.106-0.631 0.188l-0.269 0.062c-0.061 0.023-0.381 0.093-0.703 0.158l-0.247 0.042c0.083-0.009-0.086 0.026-0.256 0.060l-0.244 0.040c-0.146 0.036-0.537 0.106-0.929 0.17l-0.221 0.030c-0.649 0.12-1.538 0.244-2.436 0.336l-0.164 0.014c-0.595 0.063-1.357 0.116-2.125 0.148l-0.075 0.002c-0.459 0.026-1.017 0.044-1.579 0.050h-0.021zM51.2 332.8c-21.208 0-38.4-17.192-38.4-38.4v0-204.8c0-37.328 14.855-73.156 41.25-99.55 26.395-26.397 62.223-41.25 99.55-41.25h716.8c37.328 0 73.156 14.852 99.55 41.25 26.398 26.394 41.25 62.222 41.25 99.55v204.8c0 21.208-17.192 38.4-38.4 38.4v0c-21.208 0-38.4-17.192-38.4-38.4v0-204.8c0-16.99-6.738-33.239-18.75-45.25s-28.26-18.75-45.25-18.75h-716.8c-16.989 0-33.237 6.737-45.25 18.75-12.012 12.011-18.75 28.26-18.75 45.25v204.8c0 21.208-17.192 38.4-38.4 38.4v0z" />
<glyph unicode="&#xe907;" glyph-name="share" horiz-adv-x="953" d="M762.047 948.093c-97.735 0-178.605-78.283-178.605-175.023 0-19.171 5.402-36.79 11.256-54.047l-272.744-155.163c-32.837 35.736-79.085 59.163-131.442 59.163-97.735 0-178.605-78.283-178.605-175.023s80.87-175.023 178.605-175.023c52.38 0 98.649 23.446 131.488 59.209l272.744-154.977c-5.902-17.32-11.302-35.026-11.302-54.279 0-96.74 80.87-175.023 178.605-175.023s178.605 78.283 178.605 175.023c0 96.74-80.87 175.023-178.605 175.023-52.284 0-98.516-23.327-131.349-58.977l-272.837 154.977c5.861 17.266 11.256 34.863 11.256 54.047s-5.395 36.781-11.256 54.047l272.698 155.163c32.838-35.75 79.12-59.163 131.488-59.163 97.734 0 178.605 78.283 178.605 175.023s-80.87 175.023-178.605 175.023zM762.047 876.651c60.090 0 107.163-46.442 107.163-103.581s-47.073-103.581-107.163-103.581c-60.090 0-107.163 46.441-107.163 103.581s47.073 103.581 107.163 103.581zM190.512 551.581c60.090 0 107.163-46.441 107.163-103.581s-47.073-103.581-107.163-103.581c-60.090 0-107.163 46.441-107.163 103.581s47.072 103.581 107.163 103.581zM762.047 226.512c60.090 0 107.163-46.441 107.163-103.581s-47.073-103.581-107.163-103.581c-60.090 0-107.163 46.441-107.163 103.581s47.073 103.581 107.163 103.581z" />
<glyph unicode="&#xe908;" glyph-name="chart" horiz-adv-x="1164" d="M1042.091 956.091c-0.884-0.020-1.72-0.069-2.549-0.147l0.139 0.011c-0.966-0.097-1.774-0.209-2.573-0.348l0.209 0.030c-0.894-0.13-1.588-0.258-2.275-0.405l0.229 0.041c-0.353-0.091-0.459-0.123-0.565-0.154l0.247 0.063-315.864-70.545c-15.735-3.607-27.295-17.488-27.295-34.069 0-2.698 0.306-5.325 0.886-7.848l-0.045 0.235c3.607-15.735 17.488-27.295 34.069-27.295 2.698 0 5.325 0.306 7.848 0.886l-0.235-0.045 238.227 53.182-320.545-551.5-296.045 204.591c-5.539 3.864-12.411 6.174-19.823 6.174-12.813 0-24.015-6.903-30.088-17.193l-0.089-0.163-299.727-515.636c-2.973-5.029-4.73-11.082-4.73-17.546 0-12.817 6.908-24.021 17.203-30.092l0.163-0.089c5.029-2.973 11.082-4.73 17.546-4.73 12.817 0 24.021 6.908 30.092 17.203l0.089 0.163 280.773 483 296-204.591c5.545-3.878 12.43-6.196 19.856-6.196 12.823 0 24.031 6.913 30.101 17.215l0.089 0.163 334.864 576.136 56.909-254.909c3.607-15.735 17.488-27.295 34.069-27.295 2.698 0 5.325 0.306 7.848 0.886l-0.235-0.045c15.735 3.607 27.295 17.488 27.295 34.069 0 2.698-0.306 5.325-0.886 7.848l0.045-0.235-76.364 341.864c-0.091 0.353-0.123 0.459-0.154 0.565l0.063-0.247c-0.218 0.917-0.405 1.586-0.612 2.247l0.067-0.247c0 0.007 0 0.015 0 0.023s0 0.016 0 0.024v-0.001c-0.103 0.337-0.133 0.428-0.165 0.518l0.074-0.245c-0.262 0.905-0.479 1.556-0.714 2.197l0.078-0.242c-0.132 0.332-0.178 0.436-0.224 0.541l0.088-0.223c-0.34 0.873-0.616 1.502-0.909 2.121l0.090-0.212c-0.415 0.932-0.765 1.634-1.137 2.321l0.091-0.185c-0.475 0.879-0.882 1.562-1.311 2.23l0.083-0.139c-0.375 0.616-0.676 1.076-0.986 1.527l0.077-0.118c-0.21 0.313-0.345 0.506-0.481 0.697l0.072-0.106c-0.113 0.144-0.173 0.218-0.233 0.292l0.051-0.065c-0.478 0.63-0.91 1.163-1.357 1.682l0.039-0.046c-0.113 0.144-0.173 0.218-0.233 0.292l0.051-0.065c-0.483 0.562-0.944 1.065-1.418 1.555l0.009-0.009c-0.061 0.061-0.12 0.121-0.18 0.18l-0.002 0.002c-0.015 0.015-0.030 0.030-0.045 0.045v0c-0.483 0.496-0.971 0.971-1.474 1.431l-0.026 0.024c-0.009 0.009-0.083 0.069-0.157 0.128l-0.070 0.054c-0.555 0.496-1.161 1.001-1.785 1.487l-0.079 0.059c-0.458 0.361-1.006 0.764-1.566 1.151l-0.116 0.076c0.078-0.048 0.034-0.018-0.011 0.011l-0.126 0.079c0.078-0.048 0.034-0.018-0.011 0.012l-0.126 0.079c-0.439 0.297-1.017 0.657-1.607 1.002l-0.166 0.089c-0.51 0.312-1.195 0.69-1.893 1.045l-0.198 0.092c-0.007 0-0.015 0-0.023 0s-0.016 0-0.024 0h0.001c-0.11 0.065-0.424 0.217-0.74 0.365l-0.215 0.090c-0.189 0.1-0.593 0.283-1 0.459l-0.227 0.087c-0.494 0.216-1.232 0.493-1.981 0.746l-0.246 0.072c-0.501 0.184-1.26 0.418-2.028 0.626l-0.244 0.056c-0.007 0-0.015 0-0.023 0s-0.016 0-0.024 0h0.001c-0.529 0.146-1.311 0.32-2.103 0.467l-0.215 0.033c-1.384 0.27-3.024 0.465-4.695 0.543l-0.077 0.003c-0.553 0.031-1.201 0.049-1.853 0.049-0.18 0-0.359-0.001-0.538-0.004h0.027z" />
<glyph unicode="&#xe909;" glyph-name="book" horiz-adv-x="843" d="M152.471 960c-40.303 0-79.019-15.753-107.647-43.941s-44.824-66.595-44.824-106.647v-722.824c0.008-4.14 0.851-8.082 2.368-11.668l-0.074 0.198c2.862-35.707 16.742-69.787 42.529-95.176 28.629-28.19 67.344-43.941 107.647-43.941h660.706c16.633 0.002 30.116 13.485 30.118 30.117v0 963.765c-0.002 16.633-13.485 30.116-30.117 30.118h-660.706zM152.471 899.765h630.588v-662.588h-630.588c-34.028 0-65.586-13.36-92.235-33.824v606.059c0 23.85 9.561 46.708 26.824 63.706s40.815 26.647 65.412 26.647zM152.471 176.941h630.588v-180.706h-630.588c-24.597 0-48.149 9.649-65.412 26.647-17.262 16.996-26.824 39.855-26.824 63.706s9.561 46.71 26.824 63.706c17.263 16.998 40.815 26.647 65.412 26.647z" />
<glyph unicode="&#xe90a;" glyph-name="underline" d="M317.661 168.727l62.149 179.172h264.463l61.817-179.172h108.432l-243.638 677.025h-118.017l-243.636-677.025zM409.562 433.85l99.836 288.927h5.288l99.835-288.927zM139.636 29.091c-25.706 0-46.545-20.839-46.545-46.545v0c0-25.706 20.839-46.545 46.545-46.545v0h744.727c25.706 0 46.545 20.839 46.545 46.545v0c0 25.706-20.839 46.545-46.545 46.545v0h-744.727z" />
<glyph unicode="&#xe90b;" glyph-name="facebook" d="M569.198 615.481v125.28c0 34.577 28.063 62.64 62.64 62.64h62.64v156.6h-125.28c-103.793 0-187.919-84.125-187.919-187.919v-156.6h-125.28v-156.599h125.28v-501.115h187.919v501.115h125.28l62.64 156.599h-187.919z" />
<glyph unicode="&#xe90c;" glyph-name="twitter" d="M984.788 757.925c-34.789-15.26-71.851-25.373-110.496-30.284 39.752 23.736 70.096 61.036 84.364 105.995-37.069-22.099-77.995-37.709-121.603-46.421-35.198 37.476-85.361 60.686-140.083 60.686-106.169 0-191.643-86.176-191.643-191.82 0-15.2 1.286-29.816 4.443-43.731-159.431 7.776-300.504 84.188-395.274 200.589-16.545-28.706-26.251-61.562-26.251-96.933 0-66.415 34.202-125.288 85.182-159.373-30.81 0.584-61.036 9.529-86.643 23.62 0-0.585 0-1.345 0-2.105 0-93.192 66.473-170.598 153.643-188.429-15.61-4.268-32.623-6.314-50.279-6.314-12.277 0-24.672 0.702-36.306 3.274 24.847-75.945 95.354-131.777 179.191-133.59-65.245-51.039-148.089-81.788-237.772-81.788-15.727 0-30.81 0.696-45.894 2.628 84.948-54.784 185.622-86.057 294.189-86.057 352.887 0 545.815 292.317 545.815 545.699 0 8.477-0.287 16.662-0.696 24.788 38.059 27.010 70.035 60.744 96.113 99.564z" />
<glyph unicode="&#xe90d;" glyph-name="arrow-right" d="M902.095 448l-768 485.634v-971.269l768 485.634z" />
<glyph unicode="&#xe90e;" glyph-name="arrow-left" d="M121.905 448l768 485.634v-971.269l-768 485.634z" />
<glyph unicode="&#xe90f;" glyph-name="check-round" d="M1023.974 416.477c-3.836 7.992-2.768 15.984 0 23.976 0-7.992 0-15.984 0-23.976zM504.422 959.941c-7.322-2.682-14.645-3.889-21.994 0 7.322 0 14.672 0 21.994 0zM544.384 959.941c-7.322-4.023-14.645-2.628-21.994 0 7.322 0 14.672 0 21.994 0zM1023.974 456.438c-2.742 7.322-3.888 14.643 0 21.992 0-7.349 0-14.67 0-21.992zM1023.974 484.415c-0.668 0.778-1.024 1.663-1.024 2.708 0.269 31.512-5.545 62.14-13.538 92.472-21.409 81.021-60.624 152.494-116.814 214.446-37.606 41.436-80.87 76.167-129.928 103.308-47.824 26.417-98.412 45.217-152.163 55.784-20.6 4.050-41.414 4.559-62.12 6.866-1.342 0-2.655 0-3.997 0-7.322-1.636-14.645-1.636-21.994 0-6.008 0-11.989 0-17.998 0-7.322-1.636-14.645-1.636-21.994 0-2.655 0-5.337 0-7.992 0-11.104-1.824-22.424-0.992-33.528-2.441-65.902-8.636-127.38-30.601-184.887-63.481-65.956-37.842-120.7-88.236-164.34-150.456-43.238-61.658-71.831-129.564-85.295-203.773-7.644-42.159-6.732-84.641-5.633-127.23 1.448-55.382 15.074-107.947 35.808-158.796 32.294-79.17 81.888-145.897 147.362-200.819 42.97-36.074 90.955-63.809 143.178-84.029 49.031-18.987 99.511-30.789 152.512-32.395 54.771-1.692 109.086-0.434 162.329 14.024 104.821 28.507 193.147 83.352 263.343 166.468 60.19 71.258 98.139 153.057 114.124 245.047 2.681 15.395 2.178 31.003 4.617 46.344 0 2.655 0 5.337 0 7.992-1.692 7.992-1.692 15.984 0 23.976 0 5.337 0 10.647 0 15.984-1.64 7.322-1.64 14.643 0 21.992-0.026 2.012-0.026 3.996-0.026 6.008zM512.095 10.171c-242.232 0.104-438.733 196.961-437.982 438.789 0.751 242.419 195.776 437.341 438.036 437.743 242.045 0.429 438.843-196.21 438.6-438.172-0.269-242.284-196.582-438.465-438.654-438.361zM256.742 448.633c11.426 0.027 20.251-5.337 28.029-13.168 36.935-37.011 74.057-73.78 110.723-111.032 5.767-5.846 8.503-6.088 14.457-0.107 109.033 109.449 218.387 218.576 327.554 327.891 8.556 8.556 17.837 14.992 30.416 14.751 14.162-0.295 24.999-6.651 31.731-19.015 6.759-12.363 6.196-24.968-1.421-36.876-2.468-3.862-5.767-7.295-9.039-10.593-118.636-118.676-237.324-237.323-356.013-355.945-20.493-20.49-40.261-20.597-60.592-0.295-46.43 46.344-92.832 92.688-139.154 139.111-15.745 15.797-18.025 35.884-6.169 51.144 7.215 9.252 17.648 14.241 29.477 14.134z" />
<glyph unicode="&#xe910;" glyph-name="calender" horiz-adv-x="945" d="M78.769 881.231c-43.037 0-78.769-35.732-78.769-78.769v-787.692c0-43.037 35.733-78.769 78.769-78.769h787.692c43.036 0 78.769 35.733 78.769 78.769v787.692c0 43.036-35.732 78.769-78.769 78.769h-787.692zM78.769 802.462h787.692v-787.692h-787.692v787.692zM708.923 960c-21.752 0-39.385-17.633-39.385-39.385v0-157.538c0-21.752 17.633-39.385 39.385-39.385v0c21.752 0 39.385 17.633 39.385 39.385v0 157.538c0 21.752-17.633 39.385-39.385 39.385v0zM236.308 960c-21.752 0-39.385-17.633-39.385-39.385v0-157.538c0-21.752 17.633-39.385 39.385-39.385v0c21.752 0 39.385 17.633 39.385 39.385v0 157.538c0 21.752-17.633 39.385-39.385 39.385v0zM39.385 644.923c-21.752 0-39.385-17.633-39.385-39.385v0c0-21.752 17.633-39.385 39.385-39.385v0h866.462c21.752 0 39.385 17.633 39.385 39.385v0c0 21.752-17.633 39.385-39.385 39.385v0h-866.462z" />
<glyph unicode="&#xe911;" glyph-name="youtube" d="M864.666 787.201c60.072-3.383 89.578-12.277 116.758-60.635 28.314-48.295 42.598-131.481 42.598-277.995v-0.502c0-145.825-14.285-229.637-42.533-277.431-27.187-48.358-56.686-57.127-116.758-61.199-60.072-3.445-210.973-5.512-341.702-5.512-130.98 0-281.942 2.067-341.951 5.575-59.946 4.071-89.449 12.841-116.886 61.199-28 47.794-42.407 131.606-42.407 277.432v0.501c0 146.452 14.407 229.637 42.407 277.933 27.436 48.421 57.002 57.253 116.948 60.698 59.946 4.009 210.908 5.7 341.888 5.7 130.729 0 281.63-1.691 341.636-5.763zM710.823 448.44l-313.198 187.919v-375.839l313.198 187.919z" />
<glyph unicode="&#xe912;" glyph-name="delete" horiz-adv-x="931" d="M372.364 960c-37.016 0-72.553-14.734-98.727-40.909s-40.909-61.712-40.909-98.727v-46.545h-186.182c-25.706 0-46.545-20.839-46.545-46.545v0c0-25.706 20.839-46.545 46.545-46.545v0h46.545v-605.091c0-37.015 14.736-72.553 40.909-98.727 26.175-26.177 61.712-40.909 98.727-40.909h465.455c37.014 0 72.552 14.734 98.727 40.909s40.909 61.713 40.909 98.727v605.091h46.545c25.706 0 46.545 20.839 46.545 46.545v0c0 25.706-20.839 46.545-46.545 46.545v0h-186.182v46.545c0 37.015-14.732 72.552-40.909 98.727-26.175 26.173-61.712 40.909-98.727 40.909h-186.182zM372.364 866.909h186.182c12.36 0 24.165-4.893 32.909-13.636 8.742-8.741 13.636-20.546 13.636-32.909v-46.545h-279.273v46.545c0 12.363 4.895 24.168 13.636 32.909s20.547 13.636 32.909 13.636zM186.182 680.727h558.545v-605.091c0-12.361-4.893-24.166-13.636-32.909s-20.548-13.636-32.909-13.636h-465.455c-12.363 0-24.168 4.895-32.909 13.636-8.743 8.744-13.636 20.549-13.636 32.909v605.091zM372.364 541.091c-25.706 0-46.545-20.839-46.545-46.545v0-279.273c0-25.706 20.839-46.545 46.545-46.545v0c25.706 0 46.545 20.839 46.545 46.545v0 279.273c0 25.706-20.839 46.545-46.545 46.545v0zM558.545 541.091c-25.706 0-46.545-20.839-46.545-46.545v0-279.273c0-25.706 20.839-46.545 46.545-46.545v0c25.706 0 46.545 20.839 46.545 46.545v0 279.273c0 25.706-20.839 46.545-46.545 46.545v0z" />
<glyph unicode="&#xe913;" glyph-name="add-file" d="M1022.959 487.124c0-1.046 0.347-1.931 1.015-2.708 0-2.012 0-3.996 0.026-6.008l-0.026-0.128v-21.736l0.026-0.128v-15.984l-0.026-0.143v-23.691l0.026-0.142v-7.992c-1.172-7.375-1.666-14.812-2.152-22.257-0.538-8.042-1.067-16.093-2.465-24.087-15.985-91.99-53.934-173.788-114.124-245.047-70.195-83.116-158.521-137.961-263.343-166.468-53.242-14.457-107.557-15.716-162.328-14.024-53.002 1.605-103.48 13.407-152.512 32.395-52.223 20.22-100.209 47.954-143.178 84.029-65.474 54.922-115.068 121.649-147.362 200.819-20.734 50.849-34.359 103.414-35.808 158.796-1.1 42.589-2.012 85.071 5.633 127.23 13.465 74.209 42.057 142.115 85.295 203.773 43.641 62.22 98.385 112.614 164.341 150.456 57.507 32.88 118.984 54.845 184.887 63.481 5.13 0.669 10.308 0.852 15.488 1.034 6.030 0.213 12.066 0.425 18.039 1.406h7.993l0.266-0.059h21.462l0.266 0.059h17.998l0.266-0.059h21.462l0.266 0.059h3.996c6.972-0.777 13.955-1.349 20.938-1.922 13.76-1.129 27.518-2.257 41.182-4.944 53.752-10.567 104.34-29.367 152.164-55.784 49.057-27.141 92.322-61.872 129.927-103.308 56.19-61.952 95.406-133.425 116.814-214.446 7.992-30.332 13.807-60.96 13.546-92.472zM74.114 448.96c-0.751-241.828 195.75-438.685 437.982-438.789 242.072-0.104 438.384 196.076 438.653 438.361 0.243 241.963-196.554 438.601-438.599 438.172-242.259-0.402-437.285-195.324-438.036-437.743zM326.169 620.815c3.254 3.255 7.669 5.084 12.272 5.084h94.541l35.661-53.492c4.828-7.243 12.957-11.593 21.662-11.593h195.254c4.603 0 9.017-1.828 12.272-5.084s5.084-7.67 5.084-12.272v-238.644c0-4.603-1.828-9.017-5.084-12.272s-7.67-5.084-12.272-5.084h-347.119c-4.604 0-9.018 1.828-12.272 5.084s-5.084 7.67-5.084 12.272v303.729c0 4.603 1.828 9.017 5.084 12.272zM338.442 677.966c-18.413 0-36.071-7.315-49.090-20.333s-20.333-30.678-20.333-49.090v-303.729c0-18.412 7.314-36.071 20.333-49.090s30.677-20.333 49.090-20.333h347.119c18.412 0 36.070 7.314 49.090 20.333s20.334 30.678 20.334 49.090v238.644c0 18.412-7.315 36.071-20.334 49.090s-30.677 20.333-49.090 20.333h-181.322l-35.661 53.492c-4.828 7.243-12.957 11.593-21.661 11.593h-108.475zM538.033 478.373c0 14.379-11.655 26.034-26.034 26.034s-26.034-11.655-26.034-26.034v-39.051h-39.051c-14.379 0-26.034-11.655-26.034-26.034s11.655-26.034 26.034-26.034h39.051v-39.051c0-14.378 11.655-26.034 26.034-26.034s26.034 11.656 26.034 26.034v39.051h39.051c14.379 0 26.034 11.655 26.034 26.034s-11.655 26.034-26.034 26.034h-39.051v39.051z" />
<glyph unicode="&#xe914;" glyph-name="message" d="M1022.95 487.124c0-1.046 0.356-1.931 1.024-2.708 0-2.012 0-3.996 0.026-6.008l-0.026-0.128v-21.736l0.026-0.128v-15.984l-0.026-0.143v-23.691l0.026-0.142v-7.992c-1.172-7.375-1.666-14.812-2.161-22.257-0.529-8.042-1.059-16.093-2.456-24.087-15.985-91.99-53.934-173.788-114.124-245.047-70.196-83.116-158.522-137.961-263.343-166.468-53.243-14.457-107.558-15.716-162.329-14.024-53.001 1.605-103.48 13.407-152.512 32.395-52.223 20.22-100.208 47.954-143.178 84.029-65.474 54.922-115.068 121.649-147.362 200.819-20.734 50.849-34.359 103.414-35.808 158.796-1.1 42.589-2.012 85.071 5.633 127.23 13.465 74.209 42.057 142.115 85.295 203.773 43.64 62.22 98.384 112.614 164.34 150.456 57.507 32.88 118.984 54.845 184.887 63.481 5.131 0.669 10.308 0.852 15.488 1.034 6.030 0.213 12.066 0.425 18.040 1.406h7.992l0.267-0.059h21.461l0.266 0.059h17.998l0.266-0.059h21.462l0.266 0.059h3.997c6.971-0.777 13.954-1.349 20.937-1.922 13.76-1.129 27.519-2.257 41.183-4.944 53.751-10.567 104.339-29.367 152.163-55.784 49.058-27.141 92.322-61.872 129.928-103.308 56.19-61.952 95.406-133.425 116.814-214.446 7.992-30.332 13.807-60.96 13.538-92.472zM74.114 448.96c-0.751-241.828 195.749-438.685 437.982-438.789 242.072-0.104 438.385 196.076 438.654 438.361 0.243 241.963-196.555 438.601-438.6 438.172-242.259-0.402-437.285-195.324-438.036-437.743zM510.553 460.253l-194.521 136.165c3.438 4.699 8.989 7.785 15.177 7.785h358.689c6.188 0 11.738-3.087 15.177-7.785l-194.522-136.165zM525.483 407.147l183.218 128.253v-219.015c0-10.282-8.521-18.802-18.803-18.802h-358.689c-10.282 0-18.803 8.52-18.803 18.802v219.015l183.218-128.253c8.963-6.275 20.895-6.275 29.858 0zM331.209 656.271c-39.039 0-70.87-31.832-70.87-70.87v-269.017c0-39.038 31.832-70.869 70.87-70.869h358.689c39.038 0 70.87 31.832 70.87 70.869v269.017c0 39.039-31.833 70.87-70.87 70.87h-358.689z" />
<glyph unicode="&#xe915;" glyph-name="passcode" d="M841.714 575.232c32.031-18.986 47.067-47.228 45.999-84.306-0.074-2.307 0.248-4.616 0.397-6.924 0.025-12.681 0.050-25.338 0.050-38.020-0.149-13.923-0.025-27.87-0.621-41.768-0.273-6.329 1.935-7.694 7.914-7.669 29.525 0.124 59.051-0.223 88.576-0.397 20.842-5.907 32.998-20.424 39.97-40.13 0-64.675 0-129.351 0-194.026-2.158-0.298-2.158-2.233-2.729-3.648-9.553-23.602-27.094-34.869-52.5-34.571-14.241 0.174-28.483-0.223-42.724-0.348-10.867 0.124-21.735 0.149-32.577 0.472-4.020 0.124-6.054-0.695-5.88-5.336 0.422-10.847 0.397-21.717 0.571-32.562-0.174-20.972-0.199-41.942-0.521-62.914-0.546-38.045-21.957-68.869-56.146-81.898-5.758-2.183-12.207-1.589-17.467-5.187-203.301 0-406.602 0-609.904 0-0.942 3.325-4.143 2.88-6.426 3.623-37.042 12.086-60.067 42.687-61.158 81.577-0.248 8.934-0.298 17.869-0.447 26.802-0.025 12.682-0.049 25.339-0.074 38.021 0.174 10.299 0.025 20.599 0.595 30.849 0.323 5.832-1.836 7.148-7.319 7.098-23.248-0.273-46.52 0.050-69.793-0.199-10.048-0.124-19.824 0.77-29.351 4.020-7.419 4.442-14.266 9.604-20.047 16.081-7.617 11.764-10.197 24.644-10.098 38.692 0.397 52.862 0.124 105.748 0.174 158.635 0.025 34.374 20.767 55.17 55.080 55.468 10.272 0.099 20.543 0.447 30.815 0.695 14.911-0.273 29.823-0.422 44.734-0.844 4.267-0.124 5.93 1.316 5.806 5.658-0.347 14.594-0.422 29.21-0.62 43.804 1.786 21.914-1.29 43.976 1.836 65.866 5.533 38.74 37.787 69.241 76.716 72.096 5.061 0.372 7.716 0.894 7.641 7.073-0.422 27.646-0.323 55.318-0.397 82.966 0.968 13.328 1.935 26.629 2.903 39.956 6.873 35.043 17.541 68.696 35.455 99.892 71.703 124.883 222.802 178.415 357.227 126.397 2.78-1.067 5.657-1.886 8.487-2.829 8.733-4.318 17.49-8.612 26.224-12.93 28.385-16.33 53.592-36.681 76.12-60.382 6.55-8.14 13.126-16.281 19.675-24.421 20.295-29.633 35.43-61.673 45.306-96.219 1.86-9.232 3.745-18.465 5.607-27.696 5.558-39.983 2.928-80.187 3.002-120.292 0.025-9.951 2.977-13.054 12.182-11.242 9.501-2.309 18.806-5.038 27.738-8.985zM989.612 181.945c-0.025 12.682-0.025 25.364-0.050 38.046 0.124 41.719 0.273 83.413 0.298 125.131 0 5.063-1.39 9.778-6.104 12.757-2.257 3.25-5.657 4.343-9.329 4.368-9.478 0.050-18.955-0.149-28.408-0.248-47.315 0.72-94.653 0.869-141.968-0.074-12.654 0.894-25.332 0.819-37.986 0.074-47.315 0.72-94.653 0.869-141.968-0.074-12.653 0.894-25.332 0.819-37.986 0.074-47.313 0.72-94.653 0.869-141.968-0.074-12.653 0.894-25.332 0.819-37.986 0.074-47.313 0.72-94.653 0.869-141.968-0.074-12.653 0.894-25.332 0.819-37.984 0.074-47.315 0.72-94.654 0.869-141.969-0.074-10.892 0.149-21.809 0.645-32.676 0.397-10.743-0.248-16.921-6.676-17.144-17.67-0.223-10.895 0.174-21.816 0.298-32.711-0.124-15.56-0.397-31.097-0.347-46.657 0.099-31.097 0.397-62.194 0.595-93.29 1.191-7.868 6.178-12.508 13.522-13.675 5.781-0.918 11.835-0.124 17.765-0.099 47.314 0.025 94.629 0.050 141.944 0.050 12.677-0.025 25.356-0.050 38.035-0.050 47.313 0.025 94.628 0.050 141.943 0.050 12.677-0.025 25.356-0.050 38.035-0.050 47.313 0.025 94.628 0.050 141.942 0.050 12.679-0.025 25.358-0.050 38.035-0.050 47.315 0.025 94.63 0.050 141.943 0.050 12.679-0.025 25.358-0.050 38.035-0.050 47.315 0.025 94.628 0.050 141.943 0.050 12.679-0.025 25.356-0.050 38.035-0.050 18.261-0.869 24.315 5.236 23.471 23.726zM171.1 487.948c-0.695-13.352-0.844-26.705 0.099-40.031-0.174-15.239-0.248-30.501-0.621-45.74-0.099-4.566 1.935-5.609 5.98-5.559 29.822 0.323 59.645 0.521 89.493 0.745 13.323-1.216 26.647-1.043 39.97-0.099 21.512-0.199 43.022-0.571 64.534-0.546 25.158 0.025 50.316 0.422 75.45 0.67 13.323-1.216 26.646-1.067 39.97-0.099 21.51-0.199 43.022-0.571 64.534-0.546 25.158 0.025 50.316 0.422 75.45 0.67 13.323-1.216 26.646-1.067 39.97-0.099 21.51-0.199 43.022-0.571 64.532-0.546 25.159 0.025 50.317 0.422 75.475 0.67 13.919-0.248 27.864-0.447 41.782-0.819 4.167-0.124 6.029 1.241 5.905 5.683-0.372 13.948-0.472 27.895-0.695 41.843 0.124 19.234 1.142 38.493 0.174 57.653-1.266 24.668-17.144 42.139-40.839 47.303-12.702 2.332-25.505 1.116-38.259 0.842-47.313-0.025-94.628-0.025-141.968-0.050-12.677 0.025-25.332 0.025-38.011 0.050-47.313-0.025-94.628-0.025-141.967-0.050-12.679 0.025-25.333 0.025-38.011 0.050-47.315-0.025-94.63-0.025-141.968-0.050-12.679 0.025-25.332 0.025-38.011 0.050-43.146 5.437-67.734-26.703-62.97-61.994zM778.074-29.653c8.957-0.074 17.914-0.596 26.821-0.149 24.289 1.241 43.692 19.011 47.587 43.059 1.663 10.224 1.216 20.475 0.571 30.725 0.695 13.352 0.869 26.705-0.099 40.031 0.199 11.317 0.174 22.635 0.645 33.927 0.223 5.236-2.208 5.931-6.6 5.907-33.643-0.248-67.288-0.323-100.931-0.472-13.075 0.025-26.176 0.025-39.25 0.050-46.918-0.025-93.811-0.025-140.729-0.050-13.075 0.025-26.176 0.025-39.25 0.050-46.918-0.025-93.811-0.025-140.729-0.050-13.075 0.025-26.176 0.025-39.25 0.050-46.843-0.025-93.687-0.025-140.53-0.050-9.899 0.124-19.799 0.050-29.673 0.472-4.889 0.199-6.277-1.713-6.104-6.329 0.397-9.878 0.422-19.78 0.621-29.657-0.124-22.933-1.266-45.914-0.124-68.796 1.066-21.541 11.711-37.649 33.072-45.068 10.842-5.733 22.503-3.848 33.992-3.674 47.313 0.025 94.628 0.025 141.917 0.050 12.679-0.025 25.358-0.025 38.035-0.050 47.315 0.025 94.63 0.025 141.919 0.050 12.679-0.025 25.358-0.025 38.035-0.050 47.315 0.025 94.628 0.025 141.919 0.050 12.778 0 25.456 0 38.135-0.025zM700.317 617.968c-0.124-9.331-0.124-18.638-0.472-27.944-0.149-4.27 1.241-5.782 5.657-5.733 18.98 0.199 37.986 0.199 56.965 0 4.467-0.050 5.657 1.513 5.632 5.758-0.298 29.98-0.396 59.96-0.569 89.94-0.099 11.491-1.067 22.882-3.821 34.050-5.955 37.972-20.271 72.443-43.096 103.366-4.516 7.693-9.851 14.742-16.476 20.797-22.602 26.952-49.77 47.874-81.974 62.144-8.758 5.311-18.137 9.133-28.086 11.54-43.222 15.189-87.186 18.415-131.995 8.364-19.749-2.705-38.333-8.959-56.048-18.018-16.623-6.105-31.311-15.66-45.379-26.133-35.43-26.406-63.293-59.042-80.809-99.99-9.155-17.67-15.234-36.358-18.088-56.064-2.332-6.229-2.953-12.806-3.696-19.333-3.722-33.057-1.316-66.214-1.887-99.32-0.298-17.894-0.050-17.894 17.889-16.528 14.936-0.174 29.898-0.223 44.834-0.621 4.639-0.124 5.533 1.91 5.458 5.931-0.298 14.617-0.372 29.235-0.521 43.852 0.149 13.303-0.124 26.63 0.546 39.908 3.671 72.543 36.968 127.043 100.682 162.134 37.117 20.45 77.286 24.991 118.869 19.482 10.023-2.581 20.022-5.162 30.045-7.718 32.776-12.583 60.638-32.189 83.763-58.569 4.639-6.453 9.278-12.881 13.919-19.333 2.133-4.096 4.192-8.215 6.375-12.26 17.171-31.742 22.579-66.040 22.232-101.604 0.025-12.732 0.025-25.414 0.050-38.096zM506.121 823.063c-79.247-2.010-145.74-68.423-147.203-147.046-0.025-13.351-0.050-26.703-0.099-40.055-0.149-15.312-0.174-30.65-0.521-45.962-0.099-4.417 1.538-5.733 5.806-5.683 29.972 0.298 59.943 0.397 89.94 0.546 13.224-0.025 26.474-0.050 39.697-0.074 46.769 0.025 93.513 0.050 140.282 0.074 40.045 0.223 31.013-8.637 31.336 31.195 0.050 20.873 0.918 41.768-0.074 62.566-1.018 21.591-5.905 42.488-17.219 61.4-3.672 9.033-8.833 17.099-15.557 24.173-22.95 30.253-53.020 48.94-90.411 55.691-11.809 3.276-23.792 4.318-35.975 3.177zM781.7 208.896c-9.031 0.298-15.16 4.641-18.41 13.079-0.967 9.778 3.474 16.305 11.76 21.219 8.485 5.038 16.476 10.92 25.557 17.050-10.099 6.751-19.229 12.657-28.162 18.862-9.353 6.502-11.81 15.759-6.698 24.048 5.384 8.71 15.332 10.646 25.158 4.541 7.269-4.516 14.291-9.405 23.248-15.312 0 6.403-0.099 11.193 0.025 15.957 0.273 11.466 5.433 18.44 14.415 19.755 9.478 1.364 15.507-2.904 19.799-14.097 0-5.981-0.025-11.937 0.025-17.918 0-0.571 0.447-1.117 1.192-2.878 6.673 4.343 13.323 8.338 19.6 12.904 6.302 4.592 12.876 6.552 20.469 4.17 13.894-11.416 13.373-22.536-1.539-32.711-8.187-5.584-16.449-11.069-25.729-17.298 9.453-6.378 18.237-12.186 26.92-18.167 10.544-7.247 13.224-16.652 7.368-25.389-5.731-8.561-15.804-9.678-26.349-2.903-6.847 4.392-13.646 8.859-21.312 13.824-2.382-14.817 4.788-35.713-18.435-34.97-21.139 0.67-15.284 20.053-16.797 34.076-11.959-4.394-19.948-15.016-32.106-17.844zM580.008 214.927c-14.415-7.967-18.409-7.818-29.252 1.116-4.639 13.625-2.903 18.787 9.007 26.804 7.964 5.385 15.929 10.771 23.893 16.181 0.223 0.149 0.298 0.571 0.918 1.887-8.758 5.882-17.74 11.788-26.622 17.869-9.875 6.775-12.505 16.206-7.072 24.644 5.632 8.735 15.756 10.175 26.101 3.573 6.699-4.268 13.3-8.685 19.973-13.030 0.199-0.123 0.645 0.099 1.787 0.348 2.406 13.154-5.086 33.008 19.005 33.704 10.024 0.273 14.44-6.478 16.401-22.114-0.968-3.921-0.943-7.817 0.47-12.929 6.923 4.591 13.647 8.611 19.9 13.251 7.765 5.758 15.531 6.775 23.941 1.787 9.553-13.104 8.088-21.392-5.458-30.576-7.964-5.41-15.978-10.771-23.968-16.181-0.197-0.124-0.222-0.521-0.694-1.713 8.56-5.733 17.368-11.54 26.051-17.496 10.395-7.123 13.124-16.826 7.318-25.439-5.756-8.512-15.853-9.629-26.349-2.828-6.623 4.293-13.199 8.661-21.808 14.294 0-7.171 0.248-12.581-0.050-17.993-0.645-11.193-7.469-18.216-17.219-18.142-9.776 0.099-16.327 7.123-16.896 18.44-0.273 5.188-0.050 10.425-0.050 17.794-7.593-5.137-13.449-9.182-19.329-13.251zM425.368 297.446c4.714 2.878 9.477 5.658 14.092 8.685 11.636 7.619 17.293 7.222 27.664-2.158 4.368-13.104 2.605-18.44-8.733-26.159-8.237-5.609-16.548-11.143-26.051-17.521 9.031-6.031 17.517-11.615 25.903-17.347 11.239-7.644 14.316-17.124 8.609-25.96-5.93-9.157-16.251-10.026-27.912-2.307-6.253 4.119-12.48 8.288-20.271 13.475 0-6.923 0.149-11.788-0.025-16.652-0.422-11.863-7.047-19.358-17.020-19.481-10.124-0.099-16.548 7.072-17.119 19.108-0.124 2.309-0.397 4.616-0.596 6.9 0.993 2.88 1.067 5.733-0.645 9.481-6.699-4.468-13.373-8.588-19.7-13.179-8.858-6.453-17.492-6.875-26.25-0.050-6.948 13.525-5.309 19.977 7.246 28.466 7.989 5.41 15.978 10.795 23.941 16.206 0.248 0.174 0.323 0.546 1.117 1.936-8.535 5.708-17.219 11.466-25.828 17.323-10.668 7.272-13.546 16.528-7.914 25.29 5.731 8.934 15.928 10.076 27.018 2.928 6.65-4.293 13.225-8.685 21.686-14.244 0 7.568-0.273 13.376 0.050 19.183 0.571 10.201 6.772 16.555 16.052 16.902 9.652 0.372 16.772-5.956 17.839-16.331 0.546-5.286 0.472-10.622 0.67-15.933 0.348-0.745 0.694-1.514 1.016-2.259 0.993 0.745 1.986 1.514 2.977 2.259 0.695 0.447 1.44 0.943 2.185 1.44zM229.849 310.177c9.925 3.052 17.715 0.124 23.546-8.339 3.077-11.342-1.291-19.16-11.115-25.017-8.187-4.864-15.88-10.547-24.837-16.553 9.528-6.403 18.336-12.21 26.995-18.192 10.148-7.024 12.878-17.149 7.097-25.538-5.905-8.512-15.78-9.529-26.374-2.63-6.65 4.318-13.225 8.735-21.537 14.244 0-6.079 0.074-10.82-0.025-15.56-0.199-12.161-6.104-19.755-15.903-20.523-9.726-0.77-16.277 5.534-18.609 17.894 0 5.509 0 10.994 0 18.165-7.592-5.038-14.465-9.331-21.015-14.046-7.046-5.087-14.291-6.229-22.231-2.557-11.488 12.186-10.445 21.692 3.349 31.072 8.237 5.609 16.45 11.242 24.637 16.876 0.198 0.149 0.149 0.621 0.372 1.713-8.535 5.683-17.368 11.441-26.051 17.422-10.445 7.173-12.927 16.752-6.897 25.463 5.706 8.239 15.457 9.505 25.506 3.101 6.997-4.442 13.82-9.132 21.461-14.195 2.358 6.378 0.869 12.31 1.241 18.018 0.695 10.671 6.923 17.199 16.747 17.273 9.553 0.074 16.573-6.577 17.268-16.95 0.372-5.61 0.074-11.269 0.074-19.184 9.702 6.627 18.013 12.335 26.3 18.043z" />
<glyph unicode="&#xe916;" glyph-name="check" d="M1024 712.054l-122.090 126.041-513.169-529.764-266.648 275.121-122.092-125.891 387.136-399.657 1.604 1.507 1.459-1.507 633.8 654.149z" />
<glyph unicode="&#xe917;" glyph-name="arrow-down" d="M1024 740.571l-512-585.143-512 585.143h1024z" />
<glyph unicode="&#xe918;" glyph-name="heart-filled" d="M518.939-38.358c0 0-503.057 493.664-503.057 668.953 0 186.636 91.997 276.935 282.97 276.935 94.323 0 220.087-152.589 220.087-152.589s125.765 152.589 220.088 152.589c190.97 0 282.967-90.239 282.967-276.935 0-175.289-503.055-668.953-503.055-668.953z" />
<glyph unicode="&#xe919;" glyph-name="heart" d="M512-7.111c0 0-512 475.050-512 643.729 0 179.599 93.632 266.493 288 266.493 96 0 224-146.836 224-146.836s128 146.836 224 146.836c194.367 0 288-86.837 288-266.493 0-168.68-512-643.729-512-643.729zM736 844.365c-50.495 0-224-146.725-224-146.725s-173.568 146.725-224 146.725c-170.112 0-224-64.096-224-215.543 0-142.349 448-547.778 448-547.778s448 405.429 448 547.778c0 151.448-53.891 215.543-224 215.543z" />
<glyph unicode="&#xe91a;" glyph-name="bookmark" d="M512 192l-320-256v960c0 35.346 28.654 64 64 64h512c35.346 0 64-28.654 64-64v-960l-320 256zM768 832c0 35.346-28.653 64-64 64h-384c-35.346 0-64-28.654-64-64v-768l256 224 256-224v768z" />
<glyph unicode="&#xe91b;" glyph-name="export" d="M864-64h-704c-35.392 0-64 28.608-64 63.936v640.064c0 35.328 28.608 64 64 64h96v-64h-64c-17.664 0-32-14.4-32-32v-576c0-17.728 14.336-32.064 32-32.064h640c17.6 0 32 14.336 32 32.064v576c0 17.6-14.4 32-32 32h-64v64h96c35.328 0 64-28.672 64-64v-640.064c0-35.328-28.672-63.936-64-63.936zM650.625 745.156l-106.625 106.625v-627.781c0-17.664-14.4-32-32-32-17.664 0-32 14.336-32 32v627.781l-106.687-106.625c-12.16-12.224-32.004-12.224-44.164 0-12.16 12.096-12.16 31.997 0 44.093l158.086 158.149c0.192 0.256 0.573 0.377 0.765 0.633 0.704 0.832 0.451 2.051 1.219 2.883 1.216 1.152 2.939 0.768 4.219 1.664 4.736 3.84 10.239 6.466 16.703 6.914 0.512 0 0.966 0.32 1.414 0.32 0.192 0 0.316 0.188 0.508 0.188s0.323-0.124 0.515-0.188c0.384 0.064 0.639-0.195 1.023-0.195 7.616-0.384 14.524-3.389 19.836-8.125 0.448-0.448 1.155-0.257 1.539-0.641 0.384-0.512 0.193-1.218 0.641-1.602 0.256-0.256 0.189-0.766 0.445-1.086l158.851-158.914c12.224-12.096 12.224-31.997 0-44.093-12.288-12.288-32.065-12.288-44.289 0z" />
<glyph unicode="&#xe91c;" glyph-name="user" horiz-adv-x="884" d="M445.636 947.364c-137.822 0-251.818-110.001-251.818-246.091s113.996-246.091 251.818-246.091c137.823 0 251.818 110.001 251.818 246.091s-113.995 246.091-251.818 246.091zM445.636 854.273c88.911 0 158.727-68.657 158.727-153s-69.816-153-158.727-153c-88.909 0-158.727 68.657-158.727 153s69.818 153 158.727 153zM266 348.636c-66.426 0-130.308-25.536-177.636-71.545-47.328-46.015-74.182-108.936-74.182-174.545v-99.727c0-25.706 20.839-46.545 46.545-46.545v0c25.706 0 46.545 20.839 46.545 46.545v0 99.727c0 40.254 16.338 78.888 46 107.727 29.661 28.835 70.274 45.273 112.727 45.273h359.182c42.459 0 83.068-16.438 112.727-45.273 29.661-28.84 46-67.476 46-107.727v-99.727c0-25.706 20.839-46.545 46.545-46.545v0c25.706 0 46.545 20.839 46.545 46.545v0 99.727c0 65.612-26.857 128.531-74.182 174.545-47.327 46.011-111.207 71.545-177.636 71.545h-359.182z" />
<glyph unicode="&#xe91d;" glyph-name="plane" horiz-adv-x="1164" d="M1096.545 960c-0.484-0.047-0.765-0.079-1.045-0.114l0.226 0.023c-0.095 0.001-0.206 0.001-0.318 0.001s-0.224 0-0.335-0.001h0.017c-0.82-0.061-1.477-0.125-2.13-0.203l0.221 0.022c-0.456-0.068-0.642-0.099-0.827-0.132l0.281 0.041c-0.041 0-0.088 0-0.136 0s-0.096 0-0.144 0h0.007c-1.107-0.172-1.939-0.331-2.763-0.511l0.308 0.057c-1.032-0.186-1.769-0.344-2.499-0.519l0.317 0.064c-0.444-0.1-0.566-0.131-0.687-0.163l0.324 0.072c-0.541-0.141-0.754-0.203-0.966-0.267l0.33 0.085c-0.584-0.117-0.86-0.18-1.135-0.245l0.316 0.064c-0.634-0.174-0.937-0.267-1.239-0.363l0.33 0.091c-0.027 0-0.059 0-0.091 0s-0.064 0-0.096 0h0.005l-0.455-0.182-1025.909-314.182c-19.238-6.007-32.958-23.662-32.958-44.521 0-19.641 12.164-36.441 29.37-43.277l0.315-0.11 445.273-173.091 197.273-388.273c7.854-15.252 23.49-25.502 41.52-25.502 19.469 0 36.146 11.952 43.095 28.919l0.113 0.311 358.273 895.909c0.205 0.419 0.511 1.138 0.799 1.867l0.11 0.315c-0.015-0.076 0.077 0.164 0.167 0.406l0.105 0.321c-0.025-0.087 0.067 0.123 0.157 0.333l0.116 0.303c0 0.013 0 0.029 0 0.045s0 0.032 0 0.048v-0.002c0.132 0.333 0.349 0.998 0.551 1.67l0.085 0.33c-0.092-0.203-0.061-0.144-0.031-0.084l0.122 0.266c-0.021-0.118 0.041 0.095 0.102 0.308l0.080 0.328c-0.005-0.055 0.088 0.216 0.178 0.489l0.094 0.329c0 0.013 0 0.029 0 0.045s0 0.032 0 0.048v-0.002c0.057 0.158 0.182 0.646 0.3 1.138l0.064 0.317c0.002-0.042 0.065 0.234 0.125 0.51l0.057 0.308c0.007 0.006 0.039 0.255 0.069 0.505l0.022 0.223c-0.009-0.082 0.054 0.162 0.115 0.407l0.067 0.32c0 0.013 0 0.029 0 0.045s0 0.032 0 0.048v-0.002c0.042 0.244 0.106 0.742 0.163 1.243l0.019 0.212c0.011 0 0.074 0.307 0.134 0.615l0.048 0.294c0.042 0.244 0.106 0.742 0.162 1.243l0.019 0.212c0.035 0.444 0.068 1.044 0.089 1.647l0.002 0.080c0-0.044 0.032 0.173 0.063 0.391l0.028 0.245c0 0.040 0 0.088 0 0.136s0 0.096 0 0.144v-0.007c0.018 0.488 0.029 1.061 0.029 1.636s-0.010 1.148-0.031 1.719l0.002-0.082c0 0.054 0 0.118 0 0.182s0 0.128 0 0.192v-0.010c-0.027 0.636-0.059 1.172-0.101 1.706l0.010-0.16c0 0.054 0 0.118 0 0.182s0 0.128 0 0.192v-0.010c-0.127 1.41-0.287 2.624-0.494 3.822l0.039-0.277c-0.209 1.442-0.432 2.613-0.697 3.768l0.061-0.313c-0.1 0.444-0.131 0.566-0.163 0.687l0.072-0.324c-0.226 0.847-0.382 1.363-0.546 1.875l0.091-0.33c-0.128 0.565-0.191 0.809-0.255 1.052l0.073-0.325c-0.127 0.419-0.158 0.509-0.189 0.6l0.098-0.327c-0.344 1.155-0.623 1.971-0.923 2.776l0.105-0.322c-0.221 0.658-0.345 0.989-0.471 1.318l0.108-0.318c-0.127 0.419-0.158 0.509-0.189 0.6l0.098-0.327c-0.296 0.684-0.479 1.072-0.667 1.458l0.121-0.276c-0.437 0.987-0.771 1.673-1.122 2.35l0.122-0.259c-0.127 0.419-0.158 0.509-0.189 0.6l0.098-0.327c-0.629 1.308-1.175 2.321-1.755 3.31l0.119-0.219c-0.031 0.031-0.060 0.060-0.090 0.090l-0.001 0.001c-0.031 0.031-0.060 0.060-0.090 0.090l-0.001 0.001c-0.031 0.031-0.060 0.060-0.090 0.090l-0.001 0.001c-0.739 1.245-1.399 2.254-2.097 3.234l0.097-0.143c-0.061 0.061-0.12 0.121-0.18 0.18l-0.002 0.002c-0.718 0.979-1.373 1.808-2.056 2.613l0.056-0.068c-0.176 0.24-0.265 0.359-0.355 0.476l0.083-0.113c-0.061 0.061-0.12 0.121-0.18 0.18l-0.002 0.002c-0.818 0.947-1.62 1.806-2.452 2.634l-0.002 0.002c0.074-0.044-0.015 0.016-0.104 0.076l-0.169 0.106c-0.83 0.835-1.689 1.636-2.577 2.405l-0.059 0.050c0.074-0.044-0.015 0.016-0.104 0.076l-0.169 0.106c-0.214 0.178-0.51 0.416-0.808 0.651l-0.101 0.076c-0.005 0.007-0.123 0.097-0.242 0.186l-0.121 0.087c-0.41 0.316-0.943 0.704-1.484 1.082l-0.152 0.1c-0.061 0.061-0.12 0.121-0.18 0.18l-0.002 0.002c-0.294 0.2-0.768 0.501-1.248 0.793l-0.206 0.116c-0.345 0.231-0.879 0.562-1.42 0.882l-0.216 0.118c0.203-0.092 0.144-0.061 0.084-0.031l-0.266 0.122c-0.828 0.497-1.9 1.072-2.997 1.606l-0.276 0.121c0.237-0.067 0.146-0.036 0.055-0.005l-0.328 0.096c-0.419 0.205-1.138 0.511-1.867 0.799l-0.315 0.11c0.237-0.067 0.146-0.036 0.055-0.005l-0.328 0.096c-0.059 0.040-0.419 0.193-0.781 0.342l-0.31 0.113c-0.014 0-0.029 0-0.045 0s-0.032 0-0.048 0h0.003c0.055-0.005-0.216 0.088-0.489 0.178l-0.329 0.094c-0.601 0.235-1.539 0.545-2.489 0.826l-0.329 0.083c-0.784 0.241-1.915 0.524-3.061 0.765l-0.303 0.053c-0.041 0-0.088 0-0.136 0s-0.096 0-0.144 0h0.007c0.203-0.092 0.144-0.061 0.084-0.031l-0.266 0.122c-0.014 0-0.029 0-0.045 0s-0.032 0-0.048 0h0.003c-0.244 0.042-0.742 0.106-1.243 0.162l-0.212 0.019c0 0.011-0.307 0.074-0.615 0.134l-0.294 0.048c-0.283 0.045-0.813 0.11-1.345 0.165l-0.2 0.017c-0.122 0.001-0.265 0.002-0.409 0.002s-0.288-0.001-0.431-0.002h0.022c-0.031 0.031-0.060 0.060-0.090 0.090l-0.001 0.001c-0.869 0.058-1.885 0.091-2.908 0.091 0 0-0.001 0-0.001 0v0c-0.014 0-0.029 0-0.045 0s-0.032 0-0.048 0h0.003c-0.352 0.010-0.766 0.015-1.182 0.015s-0.83-0.005-1.243-0.016l0.061 0.001zM904 805.182l-379.455-332-310.545 120.727 690 211.273zM983.182 750.818l-249-622.636-142.364 280.182 391.364 342.455z" />
<glyph unicode="&#xe91e;" glyph-name="clip" d="M702.105 952.737c-62.133 0-121.956-23.137-166.737-65.368l-421.368-397.368c-61.989-58.462-97.579-138.853-97.579-222.842 0-83.985 35.592-164.273 97.579-222.737 61.988-58.466 145.113-90.737 231.579-90.737s169.59 32.272 231.579 90.737l421.474 397.368c10.428 9.85 16.919 23.772 16.919 39.21 0 14.339-5.6 27.37-14.732 37.026l0.024-0.025c-9.85 10.428-23.772 16.919-39.21 16.919-14.339 0-27.37-5.6-37.026-14.732l0.025 0.024-421.368-397.368c-41.258-38.912-98.14-61.368-157.684-61.368s-116.428 22.457-157.684 61.368c-41.258 38.913-63.684 90.599-63.684 144.316 0 53.723 22.428 105.512 63.684 144.421l421.368 397.368c24.054 22.684 57.63 36 92.842 36s68.683-13.316 92.737-36c24.048-22.683 36.842-52.392 36.842-83.158s-12.794-60.475-36.842-83.158l-421.789-397.368c0-0.016 0-0.034 0-0.053s0-0.037 0-0.056v0.003c-6.838-6.451-17.016-10.632-27.895-10.632s-21.057 4.181-27.895 10.632c0 0.016 0 0.034 0 0.053s0 0.037 0 0.056v-0.003c-6.84 6.451-10 14.082-10 21.895 0 7.822 3.16 15.549 10 22l389.263 366.737c10.396 9.846 16.866 23.748 16.866 39.16 0 14.312-5.579 27.321-14.68 36.972l0.025-0.027c-9.854 10.461-23.797 16.974-39.262 16.974-14.314 0-27.324-5.58-36.975-14.683l0.027 0.025-389.263-366.737c-27.574-26.004-43.789-62.335-43.789-100.421 0-38.084 16.216-74.311 43.789-100.316 27.577-26.016 64.104-40.105 101.895-40.105s74.212 14.090 101.789 40.105v-0.105l421.895 397.474c44.775 42.232 70.632 100.541 70.632 161.579s-25.856 119.347-70.632 161.579c-44.781 42.231-104.604 65.368-166.737 65.368z" />
<glyph unicode="&#xe91f;" glyph-name="users" horiz-adv-x="1219" d="M466.476 942.476c-134.137 0-244.19-109.198-244.19-242.952s110.054-242.857 244.19-242.857c134.136 0 244.286 109.102 244.286 242.857s-110.149 242.952-244.286 242.952zM808.476 936.095c-22.594-0.046-41.577-15.451-47.067-36.327l-0.076-0.34c-0.964-3.623-1.518-7.783-1.518-12.072 0-22.665 15.464-41.719 36.417-47.186l0.339-0.075c31.63-8.042 59.577-26.293 79.524-51.81 19.941-25.513 30.762-56.742 30.762-88.952s-10.821-63.533-30.762-89.048c-19.947-25.516-47.894-43.767-79.524-51.81-21.281-5.55-36.733-24.598-36.733-47.255 0-4.257 0.545-8.386 1.57-12.322l-0.075 0.339c5.542-21.292 24.595-36.756 47.261-36.756 4.289 0 8.449 0.554 12.412 1.594l-0.34-0.076c52.475 13.342 98.994 43.604 132.286 86.19 33.287 42.59 51.429 95.141 51.429 149.143s-18.141 106.458-51.429 149.048c-33.292 42.588-79.811 72.944-132.286 86.286-3.521 0.909-7.562 1.431-11.726 1.431-0.163 0-0.327-0.001-0.49-0.002h0.025zM466.476 844.952c81.796 0 146.762-64.749 146.762-145.429s-64.966-145.333-146.762-145.333c-81.797 0-146.667 64.653-146.667 145.333s64.869 145.429 146.667 145.429zM271.048 360c-64.673 0-126.843-25.448-172.667-70.952-45.826-45.506-71.619-107.413-71.619-171.905v-97.048c0-26.93 21.831-48.762 48.762-48.762v0c26.93 0 48.762 21.831 48.762 48.762v0 97.048c0 38.484 15.36 75.361 42.857 102.667 27.499 27.307 64.883 42.667 103.905 42.667h390.952c39.017 0 76.41-15.362 103.905-42.667 27.499-27.305 42.857-64.183 42.857-102.667v-97.048c0-26.93 21.831-48.762 48.762-48.762v0c26.93 0 48.762 21.831 48.762 48.762v0 97.048c0 64.492-25.885 126.399-71.714 171.905-45.823 45.506-107.901 70.952-172.571 70.952h-390.952zM1004 353.714c-22.594-0.046-41.577-15.451-47.067-36.327l-0.076-0.34c-0.968-3.63-1.524-7.798-1.524-12.095 0-22.633 15.42-41.664 36.327-47.162l0.34-0.076c31.543-8.087 59.452-26.338 79.333-51.81 19.88-25.465 30.645-56.625 30.667-88.762v-97.048c0-26.93 21.831-48.762 48.762-48.762v0c26.93 0 48.762 21.831 48.762 48.762v0 97.048c-0.037 53.889-18.141 106.243-51.333 148.762-33.191 42.523-79.663 72.868-132 86.286-3.63 0.968-7.798 1.524-12.095 1.524-0.033 0-0.067 0-0.1 0h0.005z" />
<glyph unicode="&#xe920;" glyph-name="pen" horiz-adv-x="1240" d="M102 948.947c-0.576-0.050-0.938-0.087-1.299-0.128l0.247 0.023c-0.967-0.015-1.884-0.053-2.795-0.114l0.163 0.009c-0.848-0.084-1.462-0.158-2.072-0.243l0.282 0.032c-1.224-0.21-2.114-0.393-2.995-0.598l0.364 0.071c-1.048-0.183-1.76-0.33-2.466-0.49l0.361 0.069c-0.993-0.196-1.631-0.342-2.265-0.499l0.371 0.078c-1.23-0.32-2.073-0.572-2.907-0.844l0.381 0.108c-1.045-0.353-1.708-0.603-2.363-0.865l0.363 0.128c-0.734-0.201-1.085-0.309-1.434-0.421l0.382 0.105c-1.095-0.433-1.824-0.752-2.543-1.086l0.333 0.139c-1.576-0.69-2.785-1.289-3.968-1.93l0.284 0.141c-0.679-0.378-1.091-0.622-1.501-0.871l0.237 0.135c-1.061-0.606-1.851-1.093-2.628-1.6l0.207 0.127c-0.508-0.277-0.748-0.417-0.988-0.558l0.251 0.137c-1.207-0.813-2.202-1.54-3.17-2.299l0.117 0.089c-0.376-0.327-0.684-0.602-0.99-0.88l0.042 0.038c-0.859-0.66-1.579-1.246-2.283-1.85l0.072 0.061c-0.406-0.357-0.749-0.666-1.088-0.98l0.035 0.032c-0.979-0.942-1.906-1.903-2.797-2.897l-0.045-0.051c-0.977-1.054-1.941-2.186-2.859-3.356l-0.089-0.118c-0.062-0.073-0.2-0.244-0.336-0.416l-0.085-0.11c-0.093-0.125-0.301-0.434-0.506-0.745l-0.125-0.202c-0.543-0.746-1.167-1.672-1.764-2.619l-0.131-0.223c-0.613-0.976-1.313-2.217-1.964-3.486l-0.141-0.304c0.071 0.165 0 0.027-0.069-0.112l-0.141-0.31c-0.503-0.925-1.103-2.17-1.655-3.441l-0.135-0.348c-0.412-0.915-0.911-2.204-1.361-3.516l-0.113-0.379c0.046 0.234 0.010 0.093-0.026-0.049l-0.080-0.372c-0.269-0.836-0.596-2.072-0.879-3.324l-0.068-0.36c-0.233-0.937-0.49-2.256-0.698-3.592l-0.039-0.303c-0.008-0.007-0.045-0.295-0.080-0.584l-0.025-0.258c-0.028-0.096-0.102-0.526-0.17-0.956l-0.040-0.307c-0.13-0.995-0.242-2.267-0.31-3.55l-0.006-0.134c-0.069-1.022-0.108-2.215-0.108-3.417 0-0.205 0.001-0.41 0.003-0.614v0.031c0.056-1.087 0.131-2.033 0.231-2.972l-0.020 0.235c0.035-0.684 0.073-1.231 0.119-1.776l-0.013 0.197c0.068-0.536 0.105-0.787 0.144-1.038l-0.038 0.301c0.155-1.573 0.341-2.905 0.574-4.22l-0.048 0.325c0.274-1.187 0.492-1.998 0.727-2.802l-0.096 0.381c0.196-0.993 0.342-1.631 0.499-2.265l-0.078 0.37c0.181-0.591 0.252-0.801 0.325-1.010l-0.115 0.378c0.449-1.589 0.844-2.78 1.279-3.952l-0.121 0.373c0.238-0.595 0.344-0.837 0.452-1.079l-0.137 0.342c0.181-0.591 0.252-0.801 0.325-1.010l-0.115 0.378 269.158-667.895c7.855-19.12 25.86-32.566 47.131-33.679l0.133-0.006 277.263-14.211c-0.195-1.722-0.307-3.719-0.307-5.741 0-17.624 8.458-33.272 21.537-43.107l0.138-0.1 164.421-122.211c8.85-6.621 20.010-10.601 32.1-10.601 17.66 0 33.337 8.493 43.168 21.619l0.101 0.14 285.158 383.579c6.621 8.85 10.601 20.010 10.601 32.1 0 17.66-8.494 33.337-21.619 43.168l-0.14 0.101-164.421 122.211c-8.835 6.585-19.966 10.543-32.022 10.543-7.556 0-14.748-1.555-21.276-4.362l0.35 0.134-93.579 261.474c-7.121 19.447-24.595 33.464-45.573 35.457l-0.217 0.017-714.842 64.947c-0.583 0.071-1.418 0.146-2.259 0.202l-0.162 0.009c-1.346 0.127-2.921 0.203-4.513 0.21h-0.013c-0.313 0.007-0.683 0.010-1.053 0.010s-0.739-0.004-1.108-0.011l0.055 0.001zM289.474 824.105l492.316-44.737 103.158-288.105-169.263-227.684-305.579 15.684-184.737 458.316 236.737-176c-4.791-18.66-16.96-34.844-14-54.947 12.013-81.575 89.163-138.96 170.737-126.947s138.964 89.162 126.947 170.737c-12.009 81.579-89.163 138.96-170.737 126.947-20.134-2.965-32.127-19.272-48.632-29.263l-236.947 176zM590.737 570.737c23.941 3.525 44.897-12.064 48.421-36 3.527-23.94-12.058-44.895-36-48.421s-44.896 12.060-48.421 36c-3.525 23.942 12.062 44.896 36 48.421zM997.263 461.579l77.79-57.789-220.737-297.053-77.895 57.895 220.843 296.948z" />
<glyph unicode="&#xe921;" glyph-name="like" d="M472.182 960c-18.737-0.020-34.879-11.107-42.244-27.075l-0.119-0.289-176.818-391.545h-111.818c-37.221 0-73.023-14.54-99.545-40.636-26.522-26.103-41.636-61.786-41.636-99v-325.818c0-37.214 15.114-72.897 41.636-99 26.525-26.106 62.328-40.636 99.545-40.636h674.818c33.842-0.373 66.765 11.279 92.727 33 25.966 21.718 43.209 52.097 48.364 85.545l65.273 418.909c3.096 20.076 1.743 40.68-4 60.182v0.091c-5.761 19.496-15.818 37.5-29.273 52.727-13.473 15.249-30.109 27.413-48.727 35.636-18.616 8.221-38.739 12.318-59.091 12.091h-220.636v139.636c0 49.56-20.060 97.078-55.455 131.909-35.392 34.835-83.237 54.273-133 54.273zM497.636 856.545c14.903-4.471 31.152-6.236 42.273-17.182 17.826-17.542 27.636-41.039 27.636-65.545v-186.182c0.003-25.705 20.84-46.543 46.545-46.545h267.728c0.068 0 0.147-0.001 0.227-0.001s0.16 0 0.24 0.001h-0.012c7.073 0.079 14.138-1.352 20.545-4.182 6.405-2.829 12.024-6.973 16.545-12.091s7.842-11.061 9.727-17.455c1.887-6.392 2.286-13.154 1.273-19.727l-65.273-418.818c0-0.013 0-0.029 0-0.045s0-0.032 0-0.048v0.002c-1.687-10.947-7.287-21-16.091-28.364-8.798-7.361-20.218-11.403-32-11.273-0.068 0-0.147 0.001-0.227 0.001s-0.16 0-0.24-0.001h-486.988v455.364l168.091 372.091zM141.182 448h95.273v-418.909h-95.273c-12.957 0-25.319 5.096-34.273 13.909-8.956 8.815-13.818 20.475-13.818 32.636v325.818c0 12.161 4.862 23.821 13.818 32.636 8.957 8.813 21.319 13.909 34.273 13.909z" />
<glyph unicode="&#xe922;" glyph-name="cog" d="M495.545 633.455c-92.787 0-169-76.213-169-169 0-92.789 76.213-169 169-169 92.789 0 169 76.211 169 169 0 92.787-76.211 169-169 169zM495.545 540.364c42.481 0 75.909-33.432 75.909-75.909 0-42.482-33.427-75.909-75.909-75.909-42.477 0-75.909 33.428-75.909 75.909 0 42.477 33.433 75.909 75.909 75.909zM495.545 960c-33.979 0-66.61-13.52-90.636-37.545s-37.545-56.657-37.545-90.636v-6.909c-0.050-3.999-1.244-7.935-3.455-11.273-1.672-2.525-4.264-4.151-6.818-5.727-2.379-0.655-4.374-1.368-6.3-2.207l0.3 0.117c-3.807-1.68-8.088-2.197-12.182-1.455s-7.843 2.726-10.818 5.636l-2.091 2.091c-11.904 11.918-25.983 21.367-41.545 27.818-15.561 6.451-32.246 9.727-49.091 9.727s-33.529-3.276-49.091-9.727c-15.539-6.441-29.652-15.925-41.545-27.818-11.919-11.905-21.458-26.074-27.909-41.636s-9.727-32.246-9.727-49.091 3.276-33.529 9.727-49.091c6.451-15.563 15.991-29.641 27.909-41.545l2-2.091c2.911-2.976 4.894-6.724 5.636-10.818s0.226-8.283-1.455-12.091c-0.277-0.59-0.646-1.491-0.986-2.405l-0.105-0.322c-1.442-3.922-4.055-7.386-7.455-9.818s-7.458-3.72-11.636-3.818h-2.545c-33.979 0-66.61-13.52-90.636-37.545-24.027-24.027-37.545-56.657-37.545-90.636s13.517-66.611 37.545-90.636c24.027-24.031 56.657-37.545 90.636-37.545h6.909c4-0.050 7.935-1.245 11.273-3.455 3.378-2.237 6.035-5.445 7.636-9.182 0.172-0.463 0.233-0.613 0.295-0.763l-0.113 0.309c1.681-3.808 2.197-7.996 1.455-12.091s-2.724-7.84-5.636-10.818l-2.091-2.091c-11.914-11.901-21.366-26.066-27.818-41.636-6.451-15.56-9.727-32.246-9.727-49.091s3.274-33.526 9.727-49.091c6.45-15.558 15.897-29.638 27.818-41.545 11.911-11.926 26.088-21.371 41.636-27.818 15.568-6.456 32.25-9.727 49.091-9.727s33.523 3.271 49.091 9.727c15.548 6.448 29.635 15.892 41.545 27.818l2.091 2.091c2.973 2.909 6.718 4.802 10.818 5.545 4.096 0.743 8.29 0.315 12.091-1.364 0.604-0.303 1.502-0.701 2.415-1.070l0.312-0.112c3.919-1.441 7.386-3.964 9.818-7.364 2.435-3.404 3.72-7.456 3.818-11.636v-2.545c0-33.978 13.515-66.608 37.545-90.636 24.027-24.024 56.657-37.545 90.636-37.545s66.612 13.521 90.636 37.545c23.997 24.023 37.545 56.688 37.545 90.636v6.909c0.050 3.999 1.253 7.859 3.455 11.182 2.237 3.379 5.442 6.033 9.182 7.636 0.36 0.207 0.508 0.297 0.656 0.388l-0.201-0.115c3.816 1.684 8.004 2.105 12.091 1.364 4.1-0.744 7.843-2.635 10.818-5.545l2.091-2.091c11.901-11.915 26.069-21.365 41.636-27.818 15.545-6.44 32.237-9.818 49.091-9.818s33.541 3.376 49.091 9.818c15.555 6.451 29.638 15.896 41.545 27.818 11.922 11.907 21.37 25.997 27.818 41.545 6.452 15.564 9.727 32.25 9.727 49.091s-3.269 33.52-9.727 49.091c-6.447 15.543-15.89 29.722-27.818 41.636l-2.091 2.091c-2.911 2.975-4.802 6.718-5.545 10.818-0.743 4.097-0.315 8.29 1.364 12.091-0.024-0.053 0.066 0.095 0.155 0.244l0.117 0.211c1.595 3.724 4.25 6.939 7.636 9.182 3.334 2.209 7.184 3.405 11.182 3.455h3.636c33.978 0 66.608 13.517 90.636 37.545 0.014 0 0.029 0 0.045 0s0.032 0 0.048 0h-0.003c24.019 24.026 37.455 56.657 37.455 90.636s-13.523 66.611-37.545 90.636c-24.028 24.030-56.659 37.545-90.636 37.545h-6.909c-3.999 0.050-7.858 1.253-11.182 3.455-2.545 1.686-4.146 4.328-5.727 6.909-0.694 2.348-1.436 4.308-2.301 6.2l0.119-0.291c-1.684 3.816-2.105 8.096-1.364 12.182 0.744 4.1 2.637 7.845 5.545 10.818l2.091 2.091c11.919 11.904 21.366 25.986 27.818 41.545 6.44 15.547 9.818 32.237 9.818 49.091s-3.378 33.544-9.818 49.091c-6.443 15.536-15.924 29.653-27.818 41.545-11.901 11.914-25.983 21.457-41.545 27.909-15.558 6.448-32.246 9.727-49.091 9.727s-33.526-3.274-49.091-9.727c-15.558-6.45-29.729-15.988-41.636-27.909l-2.091-2c-2.978-2.912-6.724-4.894-10.818-5.636s-8.283-0.226-12.091 1.455c0.159-0.051 0.009 0.010-0.142 0.071l-0.313 0.111c-3.733 1.6-6.94 4.25-9.182 7.636-2.207 3.331-3.405 7.273-3.455 11.273v3.636c0 33.979-13.522 66.61-37.545 90.636-24.027 24.022-56.657 37.545-90.636 37.545zM495.545 866.909c9.327 0 18.218-3.674 24.818-10.273 6.594-6.595 10.273-15.493 10.273-24.818v-3.636c0-0.027 0-0.059 0-0.091s0-0.064 0-0.096v0.005c0.087-22.209 6.727-43.933 19-62.455 12.213-18.445 29.598-32.876 49.909-41.636 20.749-9.098 43.702-11.862 66-7.818 22.39 4.059 43.009 14.729 59.273 30.636 0.244 0.191 0.392 0.31 0.539 0.43l-0.084-0.067 2.455 2.455c3.257 3.26 7.103 5.87 11.364 7.636 4.254 1.764 8.842 2.636 13.455 2.636s9.184-0.867 13.455-2.636c4.256-1.764 8.1-4.369 11.364-7.636 0-0.014 0-0.029 0-0.045s0-0.032 0-0.048v0.003c3.264-3.26 5.869-7.101 7.636-11.364 1.771-4.275 2.727-8.851 2.727-13.455s-0.956-9.179-2.727-13.455c-1.767-4.235-4.39-8.121-7.636-11.364l-2.455-2.455c-0.123-0.122-0.242-0.24-0.36-0.36l-0.004-0.004c-15.914-16.268-26.576-36.98-30.636-59.364-4.062-22.398-1.271-45.466 7.909-66.273l-4 18.818v-3.273c0-0.033 0-0.073 0-0.112 0-6.594 1.371-12.868 3.844-18.552l-0.116 0.301c8.75-20.411 23.301-37.829 41.818-50.091 18.522-12.271 40.245-18.821 62.455-18.909 0.027 0 0.059 0 0.091 0s0.064 0 0.096 0h6.904c9.319 0 18.229-3.683 24.818-10.273 6.595-6.596 10.273-15.492 10.273-24.818s-3.674-18.218-10.273-24.818c-6.589-6.589-15.499-10.273-24.818-10.273h-3.636c-0.027 0-0.059 0-0.091 0s-0.064 0-0.096 0h0.005c-22.209-0.087-43.934-6.729-62.455-19-18.409-12.189-32.782-29.55-41.545-49.818-9.105-20.756-11.953-43.795-7.909-66.091 4.060-22.384 14.724-43.097 30.636-59.364 0.122-0.123 0.24-0.242 0.359-0.36l0.004-0.004 2.455-2.364c0-0.013 0-0.029 0-0.045s0-0.032 0-0.048v0.002c3.255-3.251 5.863-7.088 7.636-11.364 1.762-4.248 2.636-8.838 2.636-13.455s-0.869-9.191-2.636-13.455c-1.771-4.271-4.375-8.106-7.636-11.364-3.257-3.261-7.19-5.868-11.455-7.636-4.245-1.746-8.79-2.727-13.364-2.727-4.603 0-9.181 0.957-13.455 2.727-4.261 1.766-8.1 4.368-11.364 7.636-0.014 0-0.029 0-0.045 0s-0.032 0-0.048 0h0.003l-2.455 2.455c-0.122 0.123-0.24 0.242-0.36 0.36l-0.004 0.004c-16.266 15.912-36.888 26.576-59.273 30.636-22.397 4.062-45.467 1.271-66.273-7.909-20.225-8.768-37.546-23.149-49.727-41.545-12.27-18.523-18.823-40.245-18.909-62.455 0-0.027 0-0.059 0-0.091s0-0.064 0-0.096v0.005-6.909c0-9.319-3.682-18.229-10.273-24.818-6.593-6.593-15.492-10.273-24.818-10.273s-18.224 3.679-24.818 10.273c-6.59 6.589-10.273 15.499-10.273 24.818v3.636c0.002 0.162 0.003 0.354 0.003 0.545s-0.001 0.383-0.003 0.575v-0.029c-0.534 22.844-7.892 45.053-21.182 63.636-0.014 0-0.029 0-0.045 0s-0.032 0-0.048 0h0.003c-12.957 18.11-31.144 31.641-51.909 39.636-20.485 8.745-43.073 11.704-65 7.727-22.384-4.060-43.005-14.722-59.273-30.636-0.123-0.122-0.242-0.24-0.36-0.36l-2.459-2.459c-3.253-3.257-7.181-5.864-11.455-7.636-4.254-1.764-8.747-2.636-13.364-2.636s-9.2 0.872-13.455 2.636c-4.274 1.772-8.111 4.379-11.364 7.636-0.014 0-0.029 0-0.045 0s-0.032 0-0.048 0h0.003c-3.26 3.257-5.87 7.103-7.636 11.364-1.764 4.254-2.636 8.842-2.636 13.455s0.871 9.196 2.636 13.455c1.764 4.258 4.369 8.1 7.636 11.364 0 0.014 0 0.029 0 0.045s0 0.032 0 0.048v-0.003l2.455 2.364c0.053 0.063 0.172 0.211 0.291 0.359l0.073 0.095c15.908 16.264 26.577 36.883 30.636 59.273 4.038 22.268 1.25 45.273-7.818 66-8.758 20.307-23.184 37.782-41.636 50-18.517 12.261-40.245 18.823-62.455 18.909-0.027 0-0.059 0-0.091 0s-0.064 0-0.096 0h-6.904c-9.325 0-18.224 3.677-24.818 10.273-6.593 6.592-10.273 15.491-10.273 24.818s3.679 18.224 10.273 24.818c6.595 6.595 15.493 10.273 24.818 10.273h3.636c0.162-0.002 0.354-0.003 0.545-0.003s0.383 0.001 0.575 0.003h-0.029c22.844 0.534 45.051 7.98 63.636 21.273 18.172 12.997 31.743 31.248 39.727 52.091 8.68 20.434 11.602 42.95 7.636 64.818-4.059 22.389-14.727 43.007-30.636 59.273-0.122 0.123-0.24 0.242-0.36 0.36l-2.459 2.459c-3.263 3.259-5.871 7.195-7.636 11.455-1.766 4.26-2.636 8.751-2.636 13.364s0.87 9.194 2.636 13.455c1.765 4.259 4.374 8.105 7.636 11.364 0.031 0.031 0.060 0.060 0.090 0.090l0.001 0.001c3.259 3.263 7.104 5.871 11.364 7.636s8.842 2.636 13.455 2.636 9.194-0.87 13.455-2.636c4.259-1.765 8.104-4.373 11.364-7.636l2.455-2.455c0.122-0.123 0.24-0.242 0.36-0.36l0.004-0.004c16.265-15.91 36.975-26.577 59.364-30.636s45.457-1.369 66.273 7.818l-18.818-3.909h3.273c0.033 0 0.073 0 0.112 0 6.594 0 12.868 1.371 18.552 3.844l-0.301-0.116c20.413 8.749 37.828 23.301 50.091 41.818s18.821 40.245 18.909 62.455c0 0.027 0 0.059 0 0.091s0 0.064 0 0.096v-0.005 6.909c0 9.325 3.678 18.223 10.273 24.818s15.491 10.273 24.818 10.273z" />
<glyph unicode="&#xe923;" glyph-name="exit" d="M146.364 931.455c-38.791 0-76.116-15.389-103.545-42.818s-42.818-64.664-42.818-103.455v-698.545c0-38.789 15.387-76.025 42.818-103.455 27.431-27.435 64.758-42.818 103.545-42.818h199.545c25.706 0 46.545 20.839 46.545 46.545v0c0 25.706-20.839 46.545-46.545 46.545v0h-199.545c-14.14 0-27.641 5.549-37.636 15.545-9.994 9.993-15.636 23.503-15.636 37.636v698.545c0 14.137 5.64 27.64 15.636 37.636s23.499 15.545 37.636 15.545h199.545c25.706 0 46.545 20.839 46.545 46.545v0c0 25.706-20.839 46.545-46.545 46.545h-199.545zM696.455 731.909c-0.398 0.012-0.867 0.019-1.337 0.019-12.864 0-24.51-5.219-32.935-13.655l-0.001-0.001c-8.421-8.423-13.629-20.058-13.629-32.909s5.208-24.486 13.629-32.909l170-170h-486.273c-25.706 0-46.545-20.839-46.545-46.545v0c0-25.706 20.839-46.545 46.545-46.545v0h486.273l-170-170c-8.421-8.423-13.629-20.058-13.629-32.909s5.208-24.486 13.629-32.909v0c8.423-8.421 20.058-13.629 32.909-13.629s24.486 5.208 32.909 13.629l247.545 247.636c0.379 0.335 0.704 0.631 1.025 0.933l-0.025-0.024c0.613 0.608 1.206 1.23 1.782 1.868l0.036 0.041c0.311 0.302 0.607 0.599 0.899 0.899l0.010 0.010c-0.044-0.074 0.016 0.015 0.076 0.104l0.106 0.169c0.635 0.723 1.29 1.522 1.918 2.343l0.082 0.112c0.092 0.092 0.181 0.18 0.27 0.27l0.003 0.003c0.195 0.247 0.464 0.602 0.727 0.961l0.091 0.13c0.018 0.017 0.138 0.195 0.256 0.374l0.107 0.172c0.498 0.713 1.069 1.603 1.609 2.513l0.118 0.215c0.326 0.523 0.748 1.266 1.151 2.022l0.122 0.251c-0.092-0.203-0.061-0.144-0.031-0.084l0.122 0.266c0.065 0.096 0.246 0.423 0.424 0.752l0.122 0.248c0.237 0.481 0.574 1.26 0.889 2.050l0.111 0.314c0.067 0.11 0.249 0.498 0.427 0.889l0.119 0.292c0.099 0.243 0.285 0.818 0.46 1.398l0.086 0.33c-0.015-0.076 0.077 0.164 0.167 0.406l0.105 0.321c0.043 0.093 0.167 0.518 0.286 0.946l0.077 0.327c0.162 0.516 0.382 1.37 0.577 2.234l0.059 0.312c0.043 0.093 0.167 0.518 0.286 0.945l0.078 0.327c0.111 0.581 0.239 1.45 0.342 2.326l0.021 0.22c0.034 0.165 0.098 0.599 0.156 1.036l0.026 0.237c0.007 0.006 0.039 0.255 0.069 0.505l0.022 0.223c0.089 0.907 0.155 2.012 0.181 3.127l0.001 0.055c0.003 0.203 0.005 0.442 0.005 0.682s-0.002 0.479-0.005 0.718v-0.036c0 0.078 0.001 0.17 0.001 0.262 0 1.027-0.033 2.046-0.099 3.057l0.007-0.138c-0.098 1.295-0.227 2.419-0.396 3.53l0.032-0.257c-0.079 0.692-0.143 1.159-0.214 1.622l0.033-0.259c-0.117 0.584-0.18 0.86-0.245 1.135l0.064-0.317c-0.236 1.283-0.456 2.264-0.708 3.233l0.071-0.323c0 0.014 0 0.029 0 0.045s0 0.032 0 0.048v-0.003c-0.303 1.155-0.552 1.974-0.823 2.783l0.095-0.328c-0.344 1.155-0.623 1.971-0.923 2.776l0.105-0.322c-0.247 0.751-0.402 1.173-0.562 1.592l0.107-0.319c-0.296 0.684-0.479 1.072-0.667 1.458l0.121-0.276c-0.461 1.088-0.827 1.865-1.213 2.63l0.122-0.267c-0.328 0.643-0.54 1.030-0.757 1.413l0.121-0.232c-0.549 0.938-1 1.65-1.469 2.349l0.106-0.167c-0.245 0.353-0.395 0.561-0.546 0.766l0.091-0.13c-0.207 0.36-0.297 0.508-0.388 0.656l0.115-0.201c-0.568 0.867-1.047 1.548-1.543 2.215l0.088-0.124c-0.354 0.489-0.623 0.844-0.896 1.195l0.078-0.104c-0.596 0.77-1.132 1.421-1.685 2.057l0.048-0.057c-0.335 0.378-0.631 0.704-0.933 1.025l0.023-0.025c-0.296 0.278-0.622 0.575-0.951 0.867l-0.049 0.042-249.455 249.455c-8.105 8.117-19.19 13.255-31.474 13.635l-0.071 0.002z" />
<glyph unicode="&#xe924;" glyph-name="bell" horiz-adv-x="905" d="M452.465 960c-82.256 0-161.121-33.523-219.116-92.977s-90.465-139.962-90.465-223.814c0-167.576-34.898-273.258-68.651-336.698s-63.86-83.070-63.86-83.070c-6.309-4.348-10.391-11.533-10.391-19.672 0-13.153 10.663-23.816 23.816-23.816 0.006 0 0.012 0 0.018 0h857.301c0.005 0 0.011 0 0.017 0 13.153 0 23.816 10.663 23.816 23.816 0 8.139-4.083 15.324-10.311 19.62l-0.080 0.052c0 0-30.107 19.63-63.86 83.070s-68.651 169.121-68.651 336.698c0 83.852-32.472 164.36-90.465 223.814-57.995 59.454-136.86 92.977-219.116 92.977zM452.465 912.372c69.325 0 135.832-28.176 185.023-78.605 49.189-50.428 76.93-119.010 76.93-190.558 0-174.213 36.544-288.234 74.233-359.070 13.923-26.168 26.977-41.129 39.628-56.558h-751.628c12.651 15.429 25.705 30.391 39.628 56.558 37.689 70.836 74.233 184.856 74.233 359.070 0 71.548 27.741 140.13 76.93 190.558 49.191 50.429 115.698 78.605 185.023 78.605zM369.163 32.279c-4.005-0.154-7.718-1.274-10.953-3.131l0.116 0.061c-7.262-4.171-12.075-11.883-12.075-20.72 0-4.319 1.15-8.369 3.159-11.861l-0.061 0.116c10.403-18.381 25.348-33.733 43.442-44.419 18.097-10.688 38.713-16.326 59.674-16.326 20.964 0 41.531 5.638 59.628 16.326 18.094 10.686 33.087 26.035 43.488 44.419 1.942 3.372 3.087 7.415 3.087 11.726 0 8.85-4.828 16.573-11.994 20.678l-0.116 0.061c-3.363 1.929-7.394 3.067-11.69 3.067-8.842 0-16.559-4.819-20.667-11.974l-0.061-0.116c-6.344-11.213-15.407-20.444-26.233-26.837-10.823-6.392-23.028-9.721-35.442-9.721-12.411 0-24.619 3.329-35.442 9.721-10.826 6.393-19.885 15.622-26.233 26.837-4.167 7.282-11.889 12.11-20.739 12.11-0.313 0-0.624-0.006-0.933-0.018l0.045 0.001z" />
<glyph unicode="&#xe925;" glyph-name="edit" d="M845.913 920.87c-36.839 0-72.211-14.644-98.261-40.696l-422.957-422.957c-5.556-5.545-9.654-12.548-11.672-20.387l-0.067-0.309-44.522-178.087c-0.845-3.244-1.331-6.967-1.331-10.805 0-24.591 19.935-44.526 44.526-44.526 3.837 0 7.561 0.485 11.113 1.398l-0.309-0.067 178.087 44.522c8.148 2.085 15.151 6.183 20.695 11.738l422.958 422.958c26.047 26.049 40.696 61.421 40.696 98.261s-14.648 72.212-40.696 98.261c-26.050 26.052-61.422 40.696-98.261 40.696zM845.913 831.826c13.257 0 25.933-5.236 35.304-14.609 9.374-9.374 14.609-22.047 14.609-35.304s-5.234-25.929-14.609-35.304l-414.261-414.261-94.087-23.478 23.478 94.087 414.261 414.261c9.372 9.372 22.047 14.609 35.304 14.609zM133.565 826.435c-35.406 0-69.398-14.093-94.435-39.13s-39.13-59.028-39.13-94.435v-623.304c0-35.406 14.095-69.398 39.13-94.435 25.037-25.039 59.029-39.13 94.435-39.13h623.304c35.405 0 69.398 14.093 94.435 39.13s39.13 59.030 39.13 94.435v311.652c0 24.589-19.933 44.522-44.522 44.522v0c-24.589 0-44.522-19.933-44.522-44.522v0-311.652c0-11.824-4.68-23.115-13.043-31.478s-19.655-13.043-31.478-13.043h-623.304c-11.826 0-23.117 4.682-31.478 13.043-8.363 8.364-13.043 19.655-13.043 31.478v623.304c0 11.825 4.682 23.117 13.043 31.478s19.653 13.043 31.478 13.043h311.652c24.589 0 44.522 19.933 44.522 44.522v0c0 24.589-19.933 44.522-44.522 44.522v0h-311.652z" />
<glyph unicode="&#xe926;" glyph-name="chat" d="M150 960c-39.759 0-77.977-15.795-106.091-43.909s-43.909-66.332-43.909-106.091v-827.455c0.010-25.701 20.848-46.532 46.55-46.532 12.849 0 24.482 5.206 32.905 13.623l193.227 193.227h601.318c39.757 0 77.976 15.839 106.091 43.955 28.11 28.114 43.909 66.285 43.909 106.045v517.136c0 39.76-15.799 77.978-43.909 106.091-28.115 28.115-66.332 43.909-106.091 43.909h-724zM150 866.909h724c15.104 0 29.546-6.001 40.227-16.682s16.682-25.123 16.682-40.227v-517.136c0-15.103-6.001-29.545-16.682-40.227-10.68-10.68-25.121-16.682-40.227-16.682h-620.591c-12.852-0.003-24.487-5.213-32.909-13.636l-127.409-127.409v715.091c0 15.106 6.001 29.546 16.682 40.227s25.121 16.682 40.227 16.682z" />
<glyph unicode="&#xe927;" glyph-name="image" d="M165.161 943.484c-81.508 0-148.645-67.138-148.645-148.645v-693.677c0-74.707 57.248-134.777 129.419-144.71 5.632-2.455 12.191-3.899 19.083-3.935h0.014c0.044 0 0.085 0 0.129 0h693.677c81.507 0 148.645 67.138 148.645 148.645v693.677c0 81.507-67.137 148.645-148.645 148.645h-693.677zM165.161 844.387h693.677c27.954 0 49.548-21.596 49.548-49.548v-375.871l-163.161 163.161c-8.967 8.963-21.352 14.507-35.032 14.507s-26.066-5.544-35.032-14.507l-524.581-524.581c-19.562 6.572-34.968 21.445-34.968 43.613v693.677c0 27.951 21.597 49.548 49.548 49.548zM338.581 745.29c-67.825 0-123.871-56.046-123.871-123.871s56.045-123.871 123.871-123.871c67.826 0 123.871 56.045 123.871 123.871s-56.046 123.871-123.871 123.871zM338.581 646.194c14.267 0 24.774-10.506 24.774-24.774 0-14.266-10.508-24.774-24.774-24.774-14.268 0-24.774 10.507-24.774 24.774 0 14.269 10.505 24.774 24.774 24.774zM710.194 477.032l198.194-198.194v-177.677c0-27.955-21.594-49.548-49.548-49.548h-574.065l425.419 425.419z" />
<glyph unicode="&#xe928;" glyph-name="cancel" d="M31.939 960c-0.266 0.008-0.578 0.013-0.892 0.013-8.576 0-16.34-3.479-21.957-9.103v0c-5.614-5.615-9.086-13.372-9.086-21.939s3.472-16.324 9.086-21.939l451.273-451.273-451.273-451.273c-5.614-5.615-9.086-13.372-9.086-21.939s3.472-16.324 9.086-21.939v0c5.615-5.614 13.372-9.086 21.939-9.086s16.324 3.472 21.939 9.086l451.273 451.273 451.273-451.273c5.615-5.614 13.372-9.086 21.939-9.086s16.324 3.472 21.939 9.086v0c5.614 5.615 9.086 13.372 9.086 21.939s-3.472 16.324-9.086 21.939l-451.273 451.273 451.273 451.273c5.614 5.615 9.086 13.372 9.086 21.939s-3.472 16.324-9.086 21.939v0c-5.615 5.614-13.372 9.086-21.939 9.086s-16.324-3.472-21.939-9.086l-451.273-451.273-451.273 451.273c-5.403 5.411-12.794 8.837-20.983 9.090l-0.047 0.001z" />
<glyph unicode="&#xe929;" glyph-name="menu" horiz-adv-x="1210" d="M62.061 944.485c-25.706 0-46.545-20.839-46.545-46.545v0c0-25.706 20.839-46.545 46.545-46.545v0h1086.061c25.706 0 46.545 20.839 46.545 46.545v0c0 25.706-20.839 46.545-46.545 46.545v0h-1086.061zM62.061 494.545c-25.706 0-46.545-20.839-46.545-46.545v0c0-25.706 20.839-46.545 46.545-46.545v0h1086.061c25.706 0 46.545 20.839 46.545 46.545v0c0 25.706-20.839 46.545-46.545 46.545v0h-1086.061zM62.061 44.606c-25.706 0-46.545-20.839-46.545-46.545v0c0-25.706 20.839-46.545 46.545-46.545v0h1086.061c25.706 0 46.545 20.839 46.545 46.545v0c0 25.706-20.839 46.545-46.545 46.545v0h-1086.061z" />
</font>
</defs>
</svg>
