<svg width="55" height="55" viewBox="0 0 55 55" fill="none" xmlns="http://www.w3.org/2000/svg">
<path d="M27.5 55C42.6878 55 55 42.6878 55 27.5C55 12.3122 42.6878 0 27.5 0C12.3122 0 0 12.3122 0 27.5C0 42.6878 12.3122 55 27.5 55Z" fill="#002684"/>
<path d="M9.63549 41.2085C9.40643 41.2085 9.18744 41.1053 9.04144 40.919C8.85266 40.6773 8.82748 40.3426 8.98103 40.0757L26.8453 9.13478C26.9813 8.90068 27.2305 8.7572 27.4998 8.7572C27.7691 8.7572 28.0183 8.90068 28.1543 9.13478L46.0186 40.0757C46.1847 40.3652 46.1419 40.7302 45.9128 40.9719C45.6838 41.2135 45.3213 41.2764 45.0243 41.1254L32.3126 34.689L9.84945 41.1783C9.77645 41.1984 9.70597 41.2085 9.63549 41.2085ZM27.4998 11.0226L11.2263 39.2073L32.1742 33.1561C32.3579 33.1032 32.5543 33.1208 32.7254 33.2089L43.4385 38.6334L27.4998 11.0226Z" fill="white"/>
<path d="M9.63521 41.2092C9.45398 41.2092 9.27274 41.1437 9.12675 41.0128C8.81714 40.7334 8.79448 40.2552 9.0764 39.9456L25.9842 21.3614L26.7444 9.46525C26.7721 9.04992 27.1295 8.73527 27.5473 8.76044C27.9627 8.78813 28.2798 9.14557 28.2521 9.56342L27.5121 21.165L36.9263 24.6815C37.1277 24.757 37.2862 24.9131 37.3643 25.1144C37.4423 25.3133 37.4322 25.5373 37.3366 25.7286L33.0599 34.2266C32.929 34.4858 32.6597 34.6469 32.3727 34.6419C32.0833 34.6369 31.8215 34.4682 31.7007 34.2039L26.5178 23.0252L10.194 40.9625C10.0455 41.1261 9.84162 41.2092 9.63521 41.2092ZM28.1817 23.0252L32.413 32.1499L35.6098 25.7991L28.1817 23.0252Z" fill="white"/>
</svg>
