<svg width="66" height="66" viewBox="0 0 66 66" fill="none" xmlns="http://www.w3.org/2000/svg">
<path d="M54.2511 24.7995C56.3156 26.0232 57.2847 27.8435 57.2159 30.2333C57.2111 30.382 57.2319 30.5308 57.2415 30.6796C57.2431 31.4969 57.2447 32.3127 57.2447 33.1301C57.2351 34.0275 57.2431 34.9264 57.2047 35.8222C57.1871 36.2301 57.3294 36.3181 57.7148 36.3165C59.6178 36.3085 61.5208 36.3309 63.4238 36.3421C64.7671 36.7228 65.5506 37.6585 66 38.9286C66 43.0971 66 47.2657 66 51.4342C65.8609 51.4534 65.8609 51.5781 65.8241 51.6693C65.2084 53.1905 64.0778 53.9167 62.4403 53.8975C61.5224 53.8863 60.6045 53.9119 59.6866 53.9199C58.9862 53.9119 58.2857 53.9103 57.5869 53.8895C57.3278 53.8815 57.1967 53.9343 57.2079 54.2334C57.2351 54.9325 57.2335 55.6331 57.2447 56.3321C57.2335 57.6838 57.2319 59.0354 57.2111 60.3871C57.1759 62.8392 55.7959 64.8259 53.5923 65.6657C53.2212 65.8064 52.8055 65.7681 52.4665 66C39.3631 66 26.2597 66 13.1563 66C13.0956 65.7857 12.8893 65.8144 12.7421 65.7665C10.3546 64.9875 8.87062 63.0152 8.80026 60.5086C8.78427 59.9328 8.78107 59.3569 8.77147 58.7811C8.76988 57.9637 8.76828 57.1479 8.76668 56.3305C8.77787 55.6667 8.76828 55.0028 8.80506 54.3422C8.82585 53.9663 8.68672 53.8815 8.33331 53.8847C6.83491 53.9023 5.33492 53.8815 3.83492 53.8975C3.18727 53.9055 2.55721 53.8479 1.94314 53.6384C1.46499 53.3521 1.02363 53.0194 0.651028 52.6019C0.160091 51.8437 -0.00621984 51.0135 0.000176729 50.1081C0.025763 46.701 0.00817244 43.2923 0.0113707 39.8836C0.0129699 37.6681 1.34985 36.3277 3.56147 36.3085C4.22351 36.3021 4.88556 36.2797 5.5476 36.2637C6.50869 36.2813 7.46977 36.2909 8.43086 36.3181C8.70591 36.3261 8.81305 36.2333 8.80506 35.9534C8.78267 35.0128 8.77787 34.0707 8.76508 33.1301C8.88022 31.7177 8.68192 30.2957 8.88342 28.8848C9.24002 26.3879 11.3189 24.422 13.828 24.238C14.1542 24.214 14.3253 24.1804 14.3205 23.7821C14.2933 22.0002 14.2997 20.2167 14.2949 18.4347C14.3573 17.5757 14.4196 16.7184 14.482 15.8594C14.925 13.6008 15.6126 11.4317 16.7672 9.42106C21.3887 1.37194 31.1275 -2.07836 39.7916 1.27437C39.9708 1.34315 40.1562 1.39594 40.3386 1.45672C40.9015 1.73505 41.4659 2.01178 42.0288 2.29011C43.8583 3.34263 45.483 4.65429 46.935 6.1819C47.3572 6.70656 47.781 7.23123 48.2031 7.75589C49.5112 9.6658 50.4867 11.7309 51.1232 13.9575C51.2431 14.5525 51.3646 15.1476 51.4846 15.7426C51.8428 18.3196 51.6733 20.9109 51.6781 23.4958C51.6797 24.1372 51.87 24.3372 52.4633 24.2204C53.0757 24.3692 53.6754 24.5451 54.2511 24.7995ZM63.7836 50.1481C63.782 49.3307 63.782 48.5133 63.7804 47.6959C63.7884 45.007 63.798 42.3197 63.7996 39.6308C63.7996 39.3045 63.71 39.0006 63.4062 38.8086C63.2607 38.5991 63.0416 38.5287 62.8049 38.5271C62.194 38.5239 61.5832 38.5367 60.9739 38.5431C57.9243 38.4967 54.8732 38.4871 51.8236 38.5479C51.008 38.4903 50.1909 38.4951 49.3753 38.5431C46.3257 38.4967 43.2746 38.4871 40.225 38.5479C39.4095 38.4903 38.5923 38.4951 37.7767 38.5431C34.7272 38.4967 31.676 38.4871 28.6264 38.5479C27.8109 38.4903 26.9937 38.4951 26.1781 38.5431C23.1286 38.4967 20.0774 38.4871 17.0278 38.5479C16.2123 38.4903 15.3951 38.4951 14.5796 38.5431C11.53 38.4967 8.47883 38.4871 5.42927 38.5479C4.72724 38.5383 4.02362 38.5063 3.3232 38.5223C2.63077 38.5383 2.23258 38.9526 2.21819 39.6612C2.2038 40.3634 2.22938 41.0673 2.23738 41.7695C2.22938 42.7724 2.21179 43.7738 2.21499 44.7767C2.22139 46.781 2.24058 48.7853 2.25337 50.7895C2.33013 51.2966 2.65156 51.5957 3.1249 51.6709C3.4975 51.7301 3.88769 51.6789 4.26989 51.6773C7.31945 51.6757 10.369 51.6741 13.4186 51.6741C14.2357 51.6757 15.0529 51.6773 15.8701 51.6773C18.9196 51.6757 21.9692 51.6741 25.0188 51.6741C25.8359 51.6757 26.6531 51.6773 27.4703 51.6773C30.5198 51.6757 33.5694 51.6741 36.6189 51.6741C37.4361 51.6757 38.2533 51.6773 39.0704 51.6773C42.12 51.6757 45.1696 51.6741 48.2191 51.6741C49.0363 51.6757 49.8535 51.6773 50.6706 51.6773C53.7202 51.6757 56.7697 51.6741 59.8193 51.6741C60.6365 51.6757 61.4536 51.6773 62.2708 51.6773C63.4478 51.7333 63.838 51.3398 63.7836 50.1481ZM11.0279 30.4252C10.9831 31.2858 10.9735 32.1464 11.0343 33.0053C11.0231 33.9875 11.0183 34.9712 10.9943 35.9534C10.9879 36.2477 11.119 36.3149 11.3797 36.3117C13.3018 36.2909 15.224 36.2781 17.1478 36.2637C18.0065 36.3421 18.8653 36.3309 19.724 36.2701C21.1105 36.2829 22.4969 36.3069 23.8834 36.3053C25.5049 36.3037 27.1264 36.2781 28.7464 36.2621C29.6051 36.3405 30.4638 36.3309 31.3226 36.2685C32.709 36.2813 34.0955 36.3053 35.482 36.3037C37.1035 36.3021 38.725 36.2765 40.345 36.2605C41.2037 36.3389 42.0624 36.3293 42.9212 36.2669C44.3076 36.2797 45.6941 36.3037 47.0805 36.3021C48.7021 36.3005 50.3236 36.2749 51.9451 36.2589C52.8422 36.2749 53.741 36.2877 54.6381 36.3117C54.9067 36.3197 55.0267 36.2317 55.0187 35.9454C54.9947 35.0464 54.9883 34.1475 54.9739 33.2485C54.9819 32.0088 55.0475 30.7675 54.9851 29.5326C54.9035 27.9427 53.8801 26.8166 52.3529 26.4838C51.5342 26.3335 50.709 26.4119 49.887 26.4295C46.8375 26.4311 43.7879 26.4311 40.7367 26.4327C39.9196 26.4311 39.104 26.4311 38.2868 26.4295C35.2373 26.4311 32.1877 26.4311 29.1366 26.4327C28.3194 26.4311 27.5038 26.4311 26.6867 26.4295C23.6371 26.4311 20.5875 26.4311 17.5364 26.4327C16.7192 26.4311 15.9037 26.4311 15.0865 26.4295C12.3056 26.0791 10.7208 28.1506 11.0279 30.4252ZM50.1493 63.7862C50.7266 63.791 51.3039 63.8246 51.878 63.7958C53.4435 63.7158 54.6941 62.5705 54.9451 61.0205C55.0523 60.3615 55.0235 59.7008 54.9819 59.0402C55.0267 58.1796 55.0379 57.319 54.9755 56.4601C54.9883 55.7307 54.9867 55.0012 55.0171 54.2734C55.0315 53.9359 54.8748 53.8911 54.5917 53.8927C52.4233 53.9087 50.2548 53.9135 48.0864 53.9231C47.2437 53.9215 46.3993 53.9215 45.5566 53.9199C42.5326 53.9215 39.5102 53.9215 36.4862 53.9231C35.6435 53.9215 34.7991 53.9215 33.9564 53.9199C30.9324 53.9215 27.91 53.9215 24.886 53.9231C24.0433 53.9215 23.1989 53.9215 22.3562 53.9199C19.337 53.9215 16.3178 53.9215 13.2986 53.9231C12.6606 53.9151 12.0225 53.9199 11.3861 53.8927C11.071 53.8799 10.9815 54.0031 10.9927 54.3006C11.0183 54.9373 11.0199 55.5755 11.0327 56.2121C11.0247 57.6902 10.9511 59.1714 11.0247 60.6462C11.0934 62.0346 11.7795 63.0728 13.1563 63.551C13.8551 63.9205 14.6067 63.799 15.3472 63.7878C18.3967 63.7862 21.4463 63.7862 24.4942 63.7846C25.3114 63.7862 26.1286 63.7862 26.9457 63.7878C29.9953 63.7862 33.0449 63.7862 36.0928 63.7846C36.91 63.7862 37.7272 63.7862 38.5443 63.7878C41.5939 63.7862 44.6434 63.7862 47.6914 63.7846C48.515 63.7846 49.3321 63.7846 50.1493 63.7862ZM45.1376 22.045C45.1296 22.6464 45.1296 23.2463 45.1072 23.8461C45.0976 24.1213 45.1872 24.2188 45.4718 24.2156C46.6951 24.2028 47.9201 24.2028 49.1434 24.2156C49.4313 24.2188 49.508 24.1181 49.5064 23.8445C49.4872 21.9122 49.4809 19.9799 49.4697 18.0476C49.4633 17.307 49.4009 16.5728 49.2234 15.853C48.8396 13.4056 47.9169 11.1838 46.4457 9.19072C46.1546 8.69485 45.8108 8.24057 45.3838 7.85027C43.927 6.11312 42.176 4.76467 40.1003 3.8449C39.5358 3.50259 38.9313 3.25626 38.2901 3.1011C35.5043 2.12215 32.6707 1.9142 29.7826 2.56204C28.5097 2.73639 27.3119 3.13949 26.1701 3.72334C25.0987 4.11683 24.152 4.73267 23.2453 5.4077C20.9617 7.10966 19.1659 9.21311 18.0369 11.8524C17.4468 12.9913 17.055 14.1958 16.8711 15.4659C16.7208 15.8674 16.6808 16.2913 16.6329 16.712C16.393 18.8426 16.5481 20.9797 16.5113 23.1135C16.4921 24.2668 16.5081 24.2668 17.6643 24.1788C18.627 24.19 19.5913 24.1932 20.554 24.2188C20.853 24.2268 20.9106 24.0957 20.9058 23.8365C20.8866 22.8944 20.8818 21.9522 20.8722 21.0101C20.8818 20.1527 20.8642 19.2937 20.9074 18.4379C21.144 13.7623 23.2901 10.2496 27.3967 7.98783C29.789 6.66977 32.378 6.37705 35.0582 6.73216C35.7042 6.89851 36.3487 7.06487 36.9947 7.22963C39.1072 8.04062 40.903 9.30429 42.3935 11.0046C42.6925 11.4205 42.9915 11.8348 43.2906 12.2507C43.4281 12.5147 43.5608 12.7802 43.7015 13.0409C44.8082 15.0868 45.1568 17.2974 45.1344 19.5896C45.136 20.4102 45.136 21.2276 45.1376 22.045ZM32.6211 8.82601C27.5134 8.95558 23.2277 13.2361 23.1334 18.3036C23.1318 19.1641 23.1302 20.0247 23.127 20.8853C23.1174 21.8722 23.1158 22.8608 23.0934 23.8477C23.087 24.1324 23.1925 24.2172 23.4676 24.214C25.3994 24.1948 27.3311 24.1884 29.2645 24.1788C30.1168 24.1804 30.9708 24.182 31.8231 24.1836C34.8375 24.182 37.8503 24.1804 40.8647 24.1788C43.4457 24.1644 42.8636 24.7355 42.8844 22.1682C42.8876 20.8229 42.9436 19.4761 42.8796 18.1356C42.814 16.744 42.499 15.3971 41.7698 14.1782C41.5331 13.596 41.2005 13.0761 40.7671 12.6202C39.2879 10.6703 37.3498 9.46585 34.9398 9.03076C34.1787 8.81962 33.4063 8.75243 32.6211 8.82601Z" fill="#3ABF7C"/>
<path d="M50.383 48.411C49.8009 48.3918 49.4059 48.1119 49.1964 47.568C49.1341 46.9378 49.4203 46.5171 49.9544 46.2004C50.5013 45.8757 51.0163 45.4966 51.6016 45.1015C50.9507 44.6664 50.3622 44.2857 49.7865 43.8858C49.1837 43.4667 49.0253 42.8701 49.3548 42.3358C49.7018 41.7744 50.343 41.6496 50.9763 42.0431C51.4448 42.3342 51.8974 42.6493 52.4747 43.03C52.4747 42.6173 52.4683 42.3086 52.4763 42.0015C52.4939 41.2625 52.8265 40.813 53.4054 40.7282C54.0163 40.6403 54.4049 40.9154 54.6815 41.6368C54.6815 42.0223 54.6799 42.4062 54.6831 42.7917C54.6831 42.8285 54.7119 42.8637 54.7599 42.9772C55.19 42.6973 55.6186 42.4398 56.0232 42.1455C56.4294 41.8495 56.8531 41.7232 57.3425 41.8767C58.238 42.6125 58.2044 43.3292 57.2433 43.985C56.7156 44.3449 56.1831 44.6984 55.585 45.0999C56.1943 45.511 56.7604 45.8853 57.3201 46.2708C57.9997 46.7379 58.1724 47.3441 57.795 47.9072C57.4256 48.459 56.7764 48.531 56.0967 48.0943C55.6554 47.8112 55.2172 47.5233 54.7231 47.2033C54.5696 48.1583 55.0317 49.5051 53.5349 49.4572C52.1724 49.414 52.5498 48.1647 52.4523 47.2609C51.6815 47.5441 51.1666 48.2287 50.383 48.411Z" fill="#3ABF7C"/>
<path d="M37.3833 48.0223C36.4542 48.5358 36.1968 48.5262 35.4979 47.9504C35.1989 47.0722 35.3108 46.7395 36.0784 46.2228C36.5917 45.8757 37.1051 45.5286 37.6184 45.1799C37.6328 45.1703 37.6376 45.1431 37.6776 45.0583C37.1131 44.6792 36.5342 44.2985 35.9617 43.9066C35.3252 43.4699 35.1557 42.8621 35.5059 42.3182C35.8689 41.7552 36.5214 41.6624 37.1882 42.0879C37.62 42.363 38.0454 42.6477 38.4755 42.9277C38.4883 42.9356 38.5171 42.9213 38.5907 42.9053C38.7458 42.0575 38.2629 40.7778 39.8156 40.733C40.4617 40.7154 40.7463 41.1505 40.8727 42.1583C40.8103 42.411 40.8119 42.6621 40.903 42.9916C41.3492 42.6957 41.7826 42.4366 42.1856 42.1375C42.6861 41.7664 43.1866 41.7008 43.7287 42.0223C44.3444 42.8669 44.25 43.4011 43.3769 43.993C42.8636 44.3417 42.3471 44.6872 41.8321 45.0359C41.8194 45.0439 41.8178 45.0695 41.7874 45.1463C42.3391 45.5158 42.9068 45.8901 43.4665 46.274C44.1365 46.7331 44.3124 47.3585 43.9382 47.9136C43.5672 48.4622 42.9164 48.5342 42.2399 48.0959C41.813 47.8192 41.3892 47.5377 40.8343 47.1746C40.8343 47.6368 40.8503 47.9855 40.8311 48.3343C40.7895 49.0557 40.3497 49.5084 39.7213 49.5036C39.0912 49.4972 38.669 49.0445 38.6323 48.3151C38.6147 47.9807 38.6291 47.6432 38.6291 47.1682C38.1397 47.4993 37.7623 47.76 37.3833 48.0223Z" fill="#3ABF7C"/>
<path d="M27.4163 42.7037C27.7201 42.5182 28.0271 42.339 28.3246 42.1439C29.0746 41.6528 29.4392 41.6784 30.1076 42.283C30.3891 43.1276 30.2755 43.4715 29.5447 43.969C29.0138 44.3305 28.4781 44.6872 27.8656 45.0983C28.4477 45.487 28.9946 45.8469 29.5351 46.2164C30.2595 46.7091 30.4578 47.3201 30.09 47.8896C29.7078 48.4798 29.0426 48.5358 28.291 48.0383C27.888 47.7728 27.4866 47.5041 26.9845 47.1698C26.9845 47.616 26.9941 47.9296 26.9829 48.2431C26.9557 49.0077 26.5287 49.4908 25.8859 49.4987C25.2334 49.5051 24.8193 49.0429 24.7825 48.2671C24.7745 48.1183 24.7569 47.9696 24.7441 47.8224C24.8081 47.6368 24.8129 47.4529 24.7025 47.2113C24.2707 47.4993 23.8406 47.7648 23.4328 48.0607C22.8619 48.4766 22.3054 48.5038 21.7409 48.0639C21.2931 47.1922 21.3987 46.7763 22.2079 46.2292C22.7228 45.8805 23.2377 45.5334 23.751 45.1847C23.767 45.1735 23.7718 45.1495 23.823 45.0599C23.2729 44.692 22.7132 44.3209 22.1583 43.9434C21.4707 43.4747 21.2852 42.8781 21.6482 42.3134C22.0176 41.7376 22.6748 41.664 23.3896 42.1247C23.8182 42.4014 24.242 42.6845 24.7873 43.0428C24.7873 42.555 24.7697 42.1807 24.7905 41.8064C24.8273 41.1489 25.227 40.7394 25.8251 40.717C26.4472 40.693 26.9061 41.1009 26.9749 41.7696C27.0101 42.1103 27.0053 42.4542 27.0181 42.7965C27.0405 42.8445 27.0628 42.8941 27.0836 42.9421C27.1476 42.8941 27.2116 42.8445 27.2755 42.7965C27.3203 42.7677 27.3683 42.7357 27.4163 42.7037Z" fill="#3ABF7C"/>
<path d="M14.8145 41.8831C15.4542 41.6864 15.9563 41.8751 16.3321 42.4206C16.5304 43.1516 16.2489 43.6555 15.6157 44.033C15.088 44.3465 14.5922 44.7128 14.0149 45.0999C14.629 45.5126 15.1967 45.8869 15.7548 46.2724C16.4089 46.7251 16.5848 47.3777 16.2122 47.9184C15.8316 48.467 15.1951 48.5326 14.5123 48.0879C14.0837 47.8096 13.6599 47.5249 13.1242 47.1698C13.1242 47.5616 13.129 47.8672 13.1226 48.1727C13.1098 48.9565 12.7292 49.446 12.0976 49.4955C11.4707 49.5451 11.0485 49.1388 10.8982 48.3422C10.8982 47.9871 10.8982 47.6336 10.8982 47.1714C10.4089 47.4961 9.96591 47.7728 9.54374 48.0767C9.08958 48.4046 8.62263 48.4782 8.11091 48.2415C7.3705 47.4561 7.43767 46.8434 8.32679 46.2388C8.85771 45.8773 9.38702 45.5142 9.91474 45.1511C9.92753 45.1415 9.92434 45.1111 9.93873 45.0407C9.38862 44.6744 8.81933 44.3033 8.25963 43.9178C7.58639 43.4555 7.42647 42.8381 7.81507 42.2766C8.18287 41.7456 8.81133 41.664 9.45899 42.0767C9.90994 42.363 10.3497 42.6653 10.8422 42.9916C10.9942 42.5805 10.8982 42.1982 10.9222 41.8303C10.967 41.1425 11.3684 40.7218 12.0016 40.717C12.6173 40.7122 13.0698 41.1409 13.1146 41.8095C13.1386 42.1711 13.1194 42.5358 13.1194 43.046C13.7447 42.6189 14.2804 42.251 14.8145 41.8831Z" fill="#3ABF7C"/>
</svg>
